<?xml version="1.0" encoding="UTF-8" standalone="no"?>
<!DOCTYPE svg PUBLIC "-//W3C//DTD SVG 1.1//EN"
 "http://www.w3.org/Graphics/SVG/1.1/DTD/svg11.dtd">
<!-- Generated by graphviz version 13.1.0 (20250701.0955)
 -->
<!-- Title: example/driver_pcf8563_alarm.h Pages: 1 -->
<svg width="222pt" height="208pt"
 viewBox="0.00 0.00 222.00 208.00" xmlns="http://www.w3.org/2000/svg" xmlns:xlink="http://www.w3.org/1999/xlink">
<g id="graph0" class="graph" transform="scale(1 1) rotate(0) translate(4 204)">
<title>example/driver_pcf8563_alarm.h</title>
<!-- Node1 -->
<g id="Node000001" class="node">
<title>Node1</title>
<g id="a_Node000001"><a xlink:title="driver pcf8563 alarm header file">
<polygon fill="#999999" stroke="#666666" points="199.38,-200 79.88,-200 79.88,-168 199.38,-168 199.38,-200"/>
<text xml:space="preserve" text-anchor="start" x="87.88" y="-186.5" font-family="Helvetica,sans-Serif" font-size="10.00">example/driver_pcf8563</text>
<text xml:space="preserve" text-anchor="middle" x="139.62" y="-174.5" font-family="Helvetica,sans-Serif" font-size="10.00">_alarm.h</text>
</a>
</g>
</g>
<!-- Node2 -->
<g id="Node000002" class="node">
<title>Node2</title>
<g id="a_Node000002"><a xlink:href="driver__pcf8563__interface_8h.html" target="_top" xlink:title="driver pcf8563 interface header file">
<polygon fill="white" stroke="#666666" points="153,-132 22.25,-132 22.25,-112 153,-112 153,-132"/>
<text xml:space="preserve" text-anchor="middle" x="87.62" y="-118.5" font-family="Helvetica,sans-Serif" font-size="10.00">driver_pcf8563_interface.h</text>
</a>
</g>
</g>
<!-- Node1&#45;&gt;Node2 -->
<g id="edge1_Node000001_Node000002" class="edge">
<title>Node1&#45;&gt;Node2</title>
<g id="a_edge1_Node000001_Node000002"><a xlink:title=" ">
<path fill="none" stroke="#63b8ff" d="M126.23,-167.55C119.16,-159.39 110.45,-149.33 103.09,-140.84"/>
<polygon fill="#63b8ff" stroke="#63b8ff" points="105.96,-138.82 96.77,-133.55 100.67,-143.4 105.96,-138.82"/>
</a>
</g>
</g>
<!-- Node7 -->
<g id="Node000007" class="node">
<title>Node7</title>
<g id="a_Node000007"><a xlink:title=" ">
<polygon fill="#e0e0e0" stroke="#999999" points="214.12,-132 171.12,-132 171.12,-112 214.12,-112 214.12,-132"/>
<text xml:space="preserve" text-anchor="middle" x="192.62" y="-118.5" font-family="Helvetica,sans-Serif" font-size="10.00">time.h</text>
</a>
</g>
</g>
<!-- Node1&#45;&gt;Node7 -->
<g id="edge6_Node000001_Node000007" class="edge">
<title>Node1&#45;&gt;Node7</title>
<g id="a_edge6_Node000001_Node000007"><a xlink:title=" ">
<path fill="none" stroke="#63b8ff" d="M153.27,-167.55C160.48,-159.39 169.36,-149.33 176.86,-140.84"/>
<polygon fill="#63b8ff" stroke="#63b8ff" points="179.32,-143.35 183.31,-133.54 174.07,-138.72 179.32,-143.35"/>
</a>
</g>
</g>
<!-- Node3 -->
<g id="Node000003" class="node">
<title>Node3</title>
<g id="a_Node000003"><a xlink:href="driver__pcf8563_8h.html" target="_top" xlink:title="driver pcf8563 header file">
<polygon fill="white" stroke="#666666" points="131.62,-76 43.62,-76 43.62,-56 131.62,-56 131.62,-76"/>
<text xml:space="preserve" text-anchor="middle" x="87.62" y="-62.5" font-family="Helvetica,sans-Serif" font-size="10.00">driver_pcf8563.h</text>
</a>
</g>
</g>
<!-- Node2&#45;&gt;Node3 -->
<g id="edge2_Node000002_Node000003" class="edge">
<title>Node2&#45;&gt;Node3</title>
<g id="a_edge2_Node000002_Node000003"><a xlink:title=" ">
<path fill="none" stroke="#63b8ff" d="M87.62,-111.59C87.62,-105.01 87.62,-95.96 87.62,-87.73"/>
<polygon fill="#63b8ff" stroke="#63b8ff" points="91.13,-87.81 87.63,-77.81 84.13,-87.81 91.13,-87.81"/>
</a>
</g>
</g>
<!-- Node4 -->
<g id="Node000004" class="node">
<title>Node4</title>
<g id="a_Node000004"><a xlink:title=" ">
<polygon fill="#e0e0e0" stroke="#999999" points="45.25,-20 0,-20 0,0 45.25,0 45.25,-20"/>
<text xml:space="preserve" text-anchor="middle" x="22.62" y="-6.5" font-family="Helvetica,sans-Serif" font-size="10.00">stdio.h</text>
</a>
</g>
</g>
<!-- Node3&#45;&gt;Node4 -->
<g id="edge3_Node000003_Node000004" class="edge">
<title>Node3&#45;&gt;Node4</title>
<g id="a_edge3_Node000003_Node000004"><a xlink:title=" ">
<path fill="none" stroke="#63b8ff" d="M76.3,-55.59C66.98,-47.85 53.55,-36.69 42.45,-27.47"/>
<polygon fill="#63b8ff" stroke="#63b8ff" points="44.91,-24.96 34.98,-21.27 40.44,-30.35 44.91,-24.96"/>
</a>
</g>
</g>
<!-- Node5 -->
<g id="Node000005" class="node">
<title>Node5</title>
<g id="a_Node000005"><a xlink:title=" ">
<polygon fill="#e0e0e0" stroke="#999999" points="111.75,-20 63.5,-20 63.5,0 111.75,0 111.75,-20"/>
<text xml:space="preserve" text-anchor="middle" x="87.62" y="-6.5" font-family="Helvetica,sans-Serif" font-size="10.00">stdint.h</text>
</a>
</g>
</g>
<!-- Node3&#45;&gt;Node5 -->
<g id="edge4_Node000003_Node000005" class="edge">
<title>Node3&#45;&gt;Node5</title>
<g id="a_edge4_Node000003_Node000005"><a xlink:title=" ">
<path fill="none" stroke="#63b8ff" d="M87.62,-55.59C87.62,-49.01 87.62,-39.96 87.62,-31.73"/>
<polygon fill="#63b8ff" stroke="#63b8ff" points="91.13,-31.81 87.63,-21.81 84.13,-31.81 91.13,-31.81"/>
</a>
</g>
</g>
<!-- Node6 -->
<g id="Node000006" class="node">
<title>Node6</title>
<g id="a_Node000006"><a xlink:title=" ">
<polygon fill="#e0e0e0" stroke="#999999" points="177.75,-20 129.5,-20 129.5,0 177.75,0 177.75,-20"/>
<text xml:space="preserve" text-anchor="middle" x="153.62" y="-6.5" font-family="Helvetica,sans-Serif" font-size="10.00">string.h</text>
</a>
</g>
</g>
<!-- Node3&#45;&gt;Node6 -->
<g id="edge5_Node000003_Node000006" class="edge">
<title>Node3&#45;&gt;Node6</title>
<g id="a_edge5_Node000003_Node000006"><a xlink:title=" ">
<path fill="none" stroke="#63b8ff" d="M99.12,-55.59C108.59,-47.85 122.23,-36.69 133.5,-27.47"/>
<polygon fill="#63b8ff" stroke="#63b8ff" points="135.57,-30.3 141.09,-21.26 131.13,-24.88 135.57,-30.3"/>
</a>
</g>
</g>
</g>
</svg>
