<?xml version="1.0" encoding="UTF-8" standalone="no"?>
<!DOCTYPE svg PUBLIC "-//W3C//DTD SVG 1.1//EN"
 "http://www.w3.org/Graphics/SVG/1.1/DTD/svg11.dtd">
<!-- Generated by graphviz version 13.1.0 (20250701.0955)
 -->
<!-- Title: pcf8563_output_enable Pages: 1 -->
<svg width="277pt" height="78pt"
 viewBox="0.00 0.00 277.00 78.00" xmlns="http://www.w3.org/2000/svg" xmlns:xlink="http://www.w3.org/1999/xlink">
<g id="graph0" class="graph" transform="scale(1 1) rotate(0) translate(4 74)">
<title>pcf8563_output_enable</title>
<!-- Node1 -->
<g id="Node000001" class="node">
<title>Node1</title>
<g id="a_Node000001"><a xlink:title="output example enable the output">
<polygon fill="#999999" stroke="#666666" points="116.5,-48 0,-48 0,-28 116.5,-28 116.5,-48"/>
<text xml:space="preserve" text-anchor="middle" x="58.25" y="-34.5" font-family="Helvetica,sans-Serif" font-size="10.00">pcf8563_output_enable</text>
</a>
</g>
</g>
<!-- Node2 -->
<g id="Node000002" class="node">
<title>Node2</title>
<g id="a_Node000002"><a xlink:href="group__pcf8563__base__driver.html#ga2facc9be8cd5fe25eee31a4927bf699b" target="_top" xlink:title="set clock out">
<polygon fill="white" stroke="#666666" points="269,-70 152.5,-70 152.5,-50 269,-50 269,-70"/>
<text xml:space="preserve" text-anchor="middle" x="210.75" y="-56.5" font-family="Helvetica,sans-Serif" font-size="10.00">pcf8563_set_clock_out</text>
</a>
</g>
</g>
<!-- Node1&#45;&gt;Node2 -->
<g id="edge1_Node000001_Node000002" class="edge">
<title>Node1&#45;&gt;Node2</title>
<g id="a_edge1_Node000001_Node000002"><a xlink:title=" ">
<path fill="none" stroke="#63b8ff" d="M116.58,-46.38C124.48,-47.54 132.67,-48.73 140.75,-49.91"/>
<polygon fill="#63b8ff" stroke="#63b8ff" points="140.19,-53.37 150.59,-51.35 141.2,-46.44 140.19,-53.37"/>
</a>
</g>
</g>
<!-- Node3 -->
<g id="Node000003" class="node">
<title>Node3</title>
<g id="a_Node000003"><a xlink:href="group__pcf8563__base__driver.html#ga7d94c9c54277d2686eaecae20f849f13" target="_top" xlink:title="enable or disable clock out enable">
<polygon fill="white" stroke="#666666" points="269,-32 152.5,-32 152.5,0 269,0 269,-32"/>
<text xml:space="preserve" text-anchor="start" x="160.5" y="-18.5" font-family="Helvetica,sans-Serif" font-size="10.00">pcf8563_set_clock_out</text>
<text xml:space="preserve" text-anchor="middle" x="210.75" y="-6.5" font-family="Helvetica,sans-Serif" font-size="10.00">_enable</text>
</a>
</g>
</g>
<!-- Node1&#45;&gt;Node3 -->
<g id="edge2_Node000001_Node000003" class="edge">
<title>Node1&#45;&gt;Node3</title>
<g id="a_edge2_Node000001_Node000003"><a xlink:title=" ">
<path fill="none" stroke="#63b8ff" d="M116.58,-29.62C124.48,-28.46 132.67,-27.27 140.75,-26.09"/>
<polygon fill="#63b8ff" stroke="#63b8ff" points="141.2,-29.56 150.59,-24.65 140.19,-22.63 141.2,-29.56"/>
</a>
</g>
</g>
</g>
</svg>
