<?xml version="1.0" encoding="UTF-8" standalone="no"?>
<!DOCTYPE svg PUBLIC "-//W3C//DTD SVG 1.1//EN"
 "http://www.w3.org/Graphics/SVG/1.1/DTD/svg11.dtd">
<!-- Generated by graphviz version 13.1.0 (20250701.0955)
 -->
<!-- Title: pcf8563_basic_init Pages: 1 -->
<svg width="442pt" height="858pt"
 viewBox="0.00 0.00 442.00 858.00" xmlns="http://www.w3.org/2000/svg" xmlns:xlink="http://www.w3.org/1999/xlink">
<g id="graph0" class="graph" transform="scale(1 1) rotate(0) translate(4 854)">
<title>pcf8563_basic_init</title>
<!-- Node1 -->
<g id="Node000001" class="node">
<title>Node1</title>
<g id="a_Node000001"><a xlink:title="basic example init">
<polygon fill="#999999" stroke="#666666" points="97,-450 0,-450 0,-430 97,-430 97,-450"/>
<text xml:space="preserve" text-anchor="middle" x="48.5" y="-436.5" font-family="Helvetica,sans-Serif" font-size="10.00">pcf8563_basic_init</text>
</a>
</g>
</g>
<!-- Node2 -->
<g id="Node000002" class="node">
<title>Node2</title>
<g id="a_Node000002"><a xlink:href="group__pcf8563__base__driver.html#ga17f476e7d78bcec9d3489e8971316ac3" target="_top" xlink:title="close the chip">
<polygon fill="white" stroke="#666666" points="242.75,-850 163.75,-850 163.75,-830 242.75,-830 242.75,-850"/>
<text xml:space="preserve" text-anchor="middle" x="203.25" y="-836.5" font-family="Helvetica,sans-Serif" font-size="10.00">pcf8563_deinit</text>
</a>
</g>
</g>
<!-- Node1&#45;&gt;Node2 -->
<g id="edge1_Node000001_Node000002" class="edge">
<title>Node1&#45;&gt;Node2</title>
<g id="a_edge1_Node000001_Node000002"><a xlink:title=" ">
<path fill="none" stroke="#63b8ff" d="M50.34,-450.3C55.03,-505.4 79.74,-764.89 133,-821 138.36,-826.65 145.23,-830.67 152.56,-833.53"/>
<polygon fill="#63b8ff" stroke="#63b8ff" points="151.45,-836.85 162.04,-836.48 153.53,-830.17 151.45,-836.85"/>
</a>
</g>
</g>
<!-- Node3 -->
<g id="Node000003" class="node">
<title>Node3</title>
<g id="a_Node000003"><a xlink:href="group__pcf8563__base__driver.html#ga83b0f5dc508a7e1f5a3c4a7cc30b58cb" target="_top" xlink:title="initialize the chip">
<polygon fill="white" stroke="#666666" points="237.5,-812 169,-812 169,-792 237.5,-792 237.5,-812"/>
<text xml:space="preserve" text-anchor="middle" x="203.25" y="-798.5" font-family="Helvetica,sans-Serif" font-size="10.00">pcf8563_init</text>
</a>
</g>
</g>
<!-- Node1&#45;&gt;Node3 -->
<g id="edge2_Node000001_Node000003" class="edge">
<title>Node1&#45;&gt;Node3</title>
<g id="a_edge2_Node000001_Node000003"><a xlink:title=" ">
<path fill="none" stroke="#63b8ff" d="M50.73,-450.42C57,-501.76 86.86,-727.43 133,-778 139.6,-785.23 148.48,-790.28 157.68,-793.81"/>
<polygon fill="#63b8ff" stroke="#63b8ff" points="156.47,-797.1 167.07,-796.83 158.62,-790.44 156.47,-797.1"/>
</a>
</g>
</g>
<!-- Node4 -->
<g id="Node000004" class="node">
<title>Node4</title>
<g id="a_Node000004"><a xlink:href="group__pcf8563__interface__driver.html#ga8dcf97b554498417a887888ad724c580" target="_top" xlink:title="interface print format data">
<polygon fill="white" stroke="#666666" points="434.25,-651 309.5,-651 309.5,-619 434.25,-619 434.25,-651"/>
<text xml:space="preserve" text-anchor="start" x="317.5" y="-637.5" font-family="Helvetica,sans-Serif" font-size="10.00">pcf8563_interface_debug</text>
<text xml:space="preserve" text-anchor="middle" x="371.88" y="-625.5" font-family="Helvetica,sans-Serif" font-size="10.00">_print</text>
</a>
</g>
</g>
<!-- Node1&#45;&gt;Node4 -->
<g id="edge3_Node000001_Node000004" class="edge">
<title>Node1&#45;&gt;Node4</title>
<g id="a_edge3_Node000001_Node000004"><a xlink:title=" ">
<path fill="none" stroke="#63b8ff" d="M50.68,-450.36C56.49,-499.4 83.79,-707.45 133,-745 182.64,-782.88 216.56,-770.64 273.5,-745 311.48,-727.9 340.63,-687.85 356.76,-661.09"/>
<polygon fill="#63b8ff" stroke="#63b8ff" points="359.74,-662.93 361.73,-652.53 353.68,-659.42 359.74,-662.93"/>
</a>
</g>
</g>
<!-- Node5 -->
<g id="Node000005" class="node">
<title>Node5</title>
<g id="a_Node000005"><a xlink:href="group__pcf8563__interface__driver.html#ga4692d53054f46d6a1f86223f2ba821fe" target="_top" xlink:title="interface delay ms">
<polygon fill="white" stroke="#666666" points="273.5,-736 133,-736 133,-716 273.5,-716 273.5,-736"/>
<text xml:space="preserve" text-anchor="middle" x="203.25" y="-722.5" font-family="Helvetica,sans-Serif" font-size="10.00">pcf8563_interface_delay_ms</text>
</a>
</g>
</g>
<!-- Node1&#45;&gt;Node5 -->
<g id="edge4_Node000001_Node000005" class="edge">
<title>Node1&#45;&gt;Node5</title>
<g id="a_edge4_Node000001_Node000005"><a xlink:title=" ">
<path fill="none" stroke="#63b8ff" d="M49.43,-450.49C49.77,-490.25 56.47,-633.13 133,-707 133.9,-707.87 134.83,-708.69 135.79,-709.48"/>
<polygon fill="#63b8ff" stroke="#63b8ff" points="133.66,-712.27 143.94,-714.81 137.49,-706.41 133.66,-712.27"/>
</a>
</g>
</g>
<!-- Node6 -->
<g id="Node000006" class="node">
<title>Node6</title>
<g id="a_Node000006"><a xlink:href="group__pcf8563__interface__driver.html#ga3dab4fc9bd87d3394d115607635003e2" target="_top" xlink:title="interface iic bus deinit">
<polygon fill="white" stroke="#666666" points="257.38,-698 149.12,-698 149.12,-666 257.38,-666 257.38,-698"/>
<text xml:space="preserve" text-anchor="start" x="157.12" y="-684.5" font-family="Helvetica,sans-Serif" font-size="10.00">pcf8563_interface_iic</text>
<text xml:space="preserve" text-anchor="middle" x="203.25" y="-672.5" font-family="Helvetica,sans-Serif" font-size="10.00">_deinit</text>
</a>
</g>
</g>
<!-- Node1&#45;&gt;Node6 -->
<g id="edge5_Node000001_Node000006" class="edge">
<title>Node1&#45;&gt;Node6</title>
<g id="a_edge5_Node000001_Node000006"><a xlink:title=" ">
<path fill="none" stroke="#63b8ff" d="M50.47,-450.24C54.24,-484.49 70.99,-596.28 133,-657 135,-658.96 137.16,-660.76 139.44,-662.43"/>
<polygon fill="#63b8ff" stroke="#63b8ff" points="137.13,-665.11 147.47,-667.38 140.8,-659.15 137.13,-665.11"/>
</a>
</g>
</g>
<!-- Node7 -->
<g id="Node000007" class="node">
<title>Node7</title>
<g id="a_Node000007"><a xlink:href="group__pcf8563__interface__driver.html#ga0123117ea131186768f481ee10ebab62" target="_top" xlink:title="interface iic bus init">
<polygon fill="white" stroke="#666666" points="266.38,-648 140.12,-648 140.12,-628 266.38,-628 266.38,-648"/>
<text xml:space="preserve" text-anchor="middle" x="203.25" y="-634.5" font-family="Helvetica,sans-Serif" font-size="10.00">pcf8563_interface_iic_init</text>
</a>
</g>
</g>
<!-- Node1&#45;&gt;Node7 -->
<g id="edge6_Node000001_Node000007" class="edge">
<title>Node1&#45;&gt;Node7</title>
<g id="a_edge6_Node000001_Node000007"><a xlink:title=" ">
<path fill="none" stroke="#63b8ff" d="M51.21,-450.32C56.84,-480.99 77.71,-572.33 133,-619 134.28,-620.08 135.62,-621.1 137,-622.06"/>
<polygon fill="#63b8ff" stroke="#63b8ff" points="134.98,-624.94 145.4,-626.86 138.45,-618.86 134.98,-624.94"/>
</a>
</g>
</g>
<!-- Node8 -->
<g id="Node000008" class="node">
<title>Node8</title>
<g id="a_Node000008"><a xlink:href="group__pcf8563__interface__driver.html#ga226bc8c2598a4c19033ce5e6f66ce27d" target="_top" xlink:title="interface iic bus read">
<polygon fill="white" stroke="#666666" points="269.38,-610 137.12,-610 137.12,-590 269.38,-590 269.38,-610"/>
<text xml:space="preserve" text-anchor="middle" x="203.25" y="-596.5" font-family="Helvetica,sans-Serif" font-size="10.00">pcf8563_interface_iic_read</text>
</a>
</g>
</g>
<!-- Node1&#45;&gt;Node8 -->
<g id="edge7_Node000001_Node000008" class="edge">
<title>Node1&#45;&gt;Node8</title>
<g id="a_edge7_Node000001_Node000008"><a xlink:title=" ">
<path fill="none" stroke="#63b8ff" d="M52.6,-450.35C60.98,-476.48 86.64,-545.61 133,-581 134.57,-582.2 136.2,-583.32 137.9,-584.37"/>
<polygon fill="#63b8ff" stroke="#63b8ff" points="136.27,-587.47 146.76,-588.95 139.49,-581.25 136.27,-587.47"/>
</a>
</g>
</g>
<!-- Node9 -->
<g id="Node000009" class="node">
<title>Node9</title>
<g id="a_Node000009"><a xlink:href="group__pcf8563__interface__driver.html#gae5e7072c55754563646762f86d2dfaf1" target="_top" xlink:title="interface iic bus write">
<polygon fill="white" stroke="#666666" points="257.38,-572 149.12,-572 149.12,-540 257.38,-540 257.38,-572"/>
<text xml:space="preserve" text-anchor="start" x="157.12" y="-558.5" font-family="Helvetica,sans-Serif" font-size="10.00">pcf8563_interface_iic</text>
<text xml:space="preserve" text-anchor="middle" x="203.25" y="-546.5" font-family="Helvetica,sans-Serif" font-size="10.00">_write</text>
</a>
</g>
</g>
<!-- Node1&#45;&gt;Node9 -->
<g id="edge8_Node000001_Node000009" class="edge">
<title>Node1&#45;&gt;Node9</title>
<g id="a_edge8_Node000001_Node000009"><a xlink:title=" ">
<path fill="none" stroke="#63b8ff" d="M56.32,-450.23C69.21,-468.82 98.91,-508.3 133,-531 134.84,-532.22 136.74,-533.39 138.69,-534.51"/>
<polygon fill="#63b8ff" stroke="#63b8ff" points="136.95,-537.55 147.44,-539.02 140.15,-531.33 136.95,-537.55"/>
</a>
</g>
</g>
<!-- Node10 -->
<g id="Node000010" class="node">
<title>Node10</title>
<g id="a_Node000010"><a xlink:href="group__pcf8563__interface__driver.html#gacf3583de504d5b8be618bdedf0a0efe4" target="_top" xlink:title="interface receive callback">
<polygon fill="white" stroke="#666666" points="268.25,-522 138.25,-522 138.25,-490 268.25,-490 268.25,-522"/>
<text xml:space="preserve" text-anchor="start" x="146.25" y="-508.5" font-family="Helvetica,sans-Serif" font-size="10.00">pcf8563_interface_receive</text>
<text xml:space="preserve" text-anchor="middle" x="203.25" y="-496.5" font-family="Helvetica,sans-Serif" font-size="10.00">_callback</text>
</a>
</g>
</g>
<!-- Node1&#45;&gt;Node10 -->
<g id="edge9_Node000001_Node000010" class="edge">
<title>Node1&#45;&gt;Node10</title>
<g id="a_edge9_Node000001_Node000010"><a xlink:title=" ">
<path fill="none" stroke="#63b8ff" d="M69.12,-450.4C85.87,-459.08 110.7,-471.53 133,-481 136.58,-482.52 140.29,-484.03 144.04,-485.51"/>
<polygon fill="#63b8ff" stroke="#63b8ff" points="142.67,-488.74 153.26,-489.06 145.18,-482.2 142.67,-488.74"/>
</a>
</g>
</g>
<!-- Node11 -->
<g id="Node000011" class="node">
<title>Node11</title>
<g id="a_Node000011"><a xlink:href="group__pcf8563__base__driver.html#gac1f34cce5e6f6308d3dd28f173cfe235" target="_top" xlink:title="enable or disable alarm interrupt">
<polygon fill="white" stroke="#666666" points="272.75,-472 133.75,-472 133.75,-452 272.75,-452 272.75,-472"/>
<text xml:space="preserve" text-anchor="middle" x="203.25" y="-458.5" font-family="Helvetica,sans-Serif" font-size="10.00">pcf8563_set_alarm_interrupt</text>
</a>
</g>
</g>
<!-- Node1&#45;&gt;Node11 -->
<g id="edge11_Node000001_Node000011" class="edge">
<title>Node1&#45;&gt;Node11</title>
<g id="a_edge11_Node000001_Node000011"><a xlink:title=" ">
<path fill="none" stroke="#63b8ff" d="M97.41,-446.9C105.23,-448.03 113.52,-449.22 121.86,-450.42"/>
<polygon fill="#63b8ff" stroke="#63b8ff" points="121.36,-453.89 131.75,-451.85 122.35,-446.96 121.36,-453.89"/>
</a>
</g>
</g>
<!-- Node12 -->
<g id="Node000012" class="node">
<title>Node12</title>
<g id="a_Node000012"><a xlink:href="group__pcf8563__base__driver.html#ga7d94c9c54277d2686eaecae20f849f13" target="_top" xlink:title="enable or disable clock out enable">
<polygon fill="white" stroke="#666666" points="261.5,-434 145,-434 145,-402 261.5,-402 261.5,-434"/>
<text xml:space="preserve" text-anchor="start" x="153" y="-420.5" font-family="Helvetica,sans-Serif" font-size="10.00">pcf8563_set_clock_out</text>
<text xml:space="preserve" text-anchor="middle" x="203.25" y="-408.5" font-family="Helvetica,sans-Serif" font-size="10.00">_enable</text>
</a>
</g>
</g>
<!-- Node1&#45;&gt;Node12 -->
<g id="edge12_Node000001_Node000012" class="edge">
<title>Node1&#45;&gt;Node12</title>
<g id="a_edge12_Node000001_Node000012"><a xlink:title=" ">
<path fill="none" stroke="#63b8ff" d="M97.41,-433.1C108.87,-431.45 121.32,-429.66 133.51,-427.9"/>
<polygon fill="#63b8ff" stroke="#63b8ff" points="133.7,-431.41 143.09,-426.52 132.7,-424.48 133.7,-431.41"/>
</a>
</g>
</g>
<!-- Node13 -->
<g id="Node000013" class="node">
<title>Node13</title>
<g id="a_Node000013"><a xlink:href="group__pcf8563__base__driver.html#gac57418efeeacbeecf55bb8d398d5c74b" target="_top" xlink:title="enable or disable day alarm">
<polygon fill="white" stroke="#666666" points="263,-384 143.5,-384 143.5,-352 263,-352 263,-384"/>
<text xml:space="preserve" text-anchor="start" x="151.5" y="-370.5" font-family="Helvetica,sans-Serif" font-size="10.00">pcf8563_set_day_alarm</text>
<text xml:space="preserve" text-anchor="middle" x="203.25" y="-358.5" font-family="Helvetica,sans-Serif" font-size="10.00">_enable</text>
</a>
</g>
</g>
<!-- Node1&#45;&gt;Node13 -->
<g id="edge13_Node000001_Node000013" class="edge">
<title>Node1&#45;&gt;Node13</title>
<g id="a_edge13_Node000001_Node000013"><a xlink:title=" ">
<path fill="none" stroke="#63b8ff" d="M66.02,-429.61C82.57,-419.48 108.95,-404.02 133,-393 136.15,-391.56 139.41,-390.14 142.73,-388.75"/>
<polygon fill="#63b8ff" stroke="#63b8ff" points="144.02,-392.01 152,-385.04 141.42,-385.51 144.02,-392.01"/>
</a>
</g>
</g>
<!-- Node14 -->
<g id="Node000014" class="node">
<title>Node14</title>
<g id="a_Node000014"><a xlink:href="group__pcf8563__base__driver.html#ga08ab309aa5842c40b572062f6fd56300" target="_top" xlink:title="enable or disable hour alarm">
<polygon fill="white" stroke="#666666" points="264.5,-334 142,-334 142,-302 264.5,-302 264.5,-334"/>
<text xml:space="preserve" text-anchor="start" x="150" y="-320.5" font-family="Helvetica,sans-Serif" font-size="10.00">pcf8563_set_hour_alarm</text>
<text xml:space="preserve" text-anchor="middle" x="203.25" y="-308.5" font-family="Helvetica,sans-Serif" font-size="10.00">_enable</text>
</a>
</g>
</g>
<!-- Node1&#45;&gt;Node14 -->
<g id="edge14_Node000001_Node000014" class="edge">
<title>Node1&#45;&gt;Node14</title>
<g id="a_edge14_Node000001_Node000014"><a xlink:title=" ">
<path fill="none" stroke="#63b8ff" d="M55.77,-429.69C68.16,-410.11 97.68,-367.33 133,-343 134.59,-341.9 136.24,-340.85 137.93,-339.84"/>
<polygon fill="#63b8ff" stroke="#63b8ff" points="139.46,-342.99 146.63,-335.19 136.16,-336.81 139.46,-342.99"/>
</a>
</g>
</g>
<!-- Node15 -->
<g id="Node000015" class="node">
<title>Node15</title>
<g id="a_Node000015"><a xlink:href="group__pcf8563__base__driver.html#gac92342a5c25603546236d1d19666e246" target="_top" xlink:title="enable or disable minute alarm">
<polygon fill="white" stroke="#666666" points="255.12,-284 151.38,-284 151.38,-252 255.12,-252 255.12,-284"/>
<text xml:space="preserve" text-anchor="start" x="159.38" y="-270.5" font-family="Helvetica,sans-Serif" font-size="10.00">pcf8563_set_minute</text>
<text xml:space="preserve" text-anchor="middle" x="203.25" y="-258.5" font-family="Helvetica,sans-Serif" font-size="10.00">_alarm_enable</text>
</a>
</g>
</g>
<!-- Node1&#45;&gt;Node15 -->
<g id="edge15_Node000001_Node000015" class="edge">
<title>Node1&#45;&gt;Node15</title>
<g id="a_edge15_Node000001_Node000015"><a xlink:title=" ">
<path fill="none" stroke="#63b8ff" d="M52.52,-429.83C60.87,-403.41 86.77,-331.97 133,-293 135.52,-290.88 138.23,-288.93 141.08,-287.14"/>
<polygon fill="#63b8ff" stroke="#63b8ff" points="142.72,-290.23 149.83,-282.38 139.37,-284.08 142.72,-290.23"/>
</a>
</g>
</g>
<!-- Node16 -->
<g id="Node000016" class="node">
<title>Node16</title>
<g id="a_Node000016"><a xlink:href="group__pcf8563__base__driver.html#gafeac16ba2e54988d6685088e259858be" target="_top" xlink:title="enable or disable power on reset">
<polygon fill="white" stroke="#666666" points="261.5,-234 145,-234 145,-202 261.5,-202 261.5,-234"/>
<text xml:space="preserve" text-anchor="start" x="153" y="-220.5" font-family="Helvetica,sans-Serif" font-size="10.00">pcf8563_set_power_on</text>
<text xml:space="preserve" text-anchor="middle" x="203.25" y="-208.5" font-family="Helvetica,sans-Serif" font-size="10.00">_reset</text>
</a>
</g>
</g>
<!-- Node1&#45;&gt;Node16 -->
<g id="edge16_Node000001_Node000016" class="edge">
<title>Node1&#45;&gt;Node16</title>
<g id="a_edge16_Node000001_Node000016"><a xlink:title=" ">
<path fill="none" stroke="#63b8ff" d="M50.91,-429.8C55.9,-397.65 75.55,-297.4 133,-243 133.77,-242.27 134.57,-241.56 135.38,-240.87"/>
<polygon fill="#63b8ff" stroke="#63b8ff" points="137.39,-243.73 143.56,-235.12 133.37,-238.01 137.39,-243.73"/>
</a>
</g>
</g>
<!-- Node17 -->
<g id="Node000017" class="node">
<title>Node17</title>
<g id="a_Node000017"><a xlink:href="group__pcf8563__base__driver.html#gacb2ccc116a7a2991315a43879448cfc1" target="_top" xlink:title="enable or disable rtc stop">
<polygon fill="white" stroke="#666666" points="258.12,-184 148.38,-184 148.38,-164 258.12,-164 258.12,-184"/>
<text xml:space="preserve" text-anchor="middle" x="203.25" y="-170.5" font-family="Helvetica,sans-Serif" font-size="10.00">pcf8563_set_rtc_stop</text>
</a>
</g>
</g>
<!-- Node1&#45;&gt;Node17 -->
<g id="edge17_Node000001_Node000017" class="edge">
<title>Node1&#45;&gt;Node17</title>
<g id="a_edge17_Node000001_Node000017"><a xlink:title=" ">
<path fill="none" stroke="#63b8ff" d="M49.74,-429.51C51.19,-391.61 61.39,-260.56 133,-193 134.63,-191.46 136.38,-190.04 138.21,-188.74"/>
<polygon fill="#63b8ff" stroke="#63b8ff" points="139.77,-191.88 146.7,-183.87 136.28,-185.81 139.77,-191.88"/>
</a>
</g>
</g>
<!-- Node18 -->
<g id="Node000018" class="node">
<title>Node18</title>
<g id="a_Node000018"><a xlink:href="group__pcf8563__base__driver.html#ga5bc2ed4c53eea1d6855721e5c4f09576" target="_top" xlink:title="enable or disable test mode">
<polygon fill="white" stroke="#666666" points="263.38,-146 143.12,-146 143.12,-126 263.38,-126 263.38,-146"/>
<text xml:space="preserve" text-anchor="middle" x="203.25" y="-132.5" font-family="Helvetica,sans-Serif" font-size="10.00">pcf8563_set_test_mode</text>
</a>
</g>
</g>
<!-- Node1&#45;&gt;Node18 -->
<g id="edge18_Node000001_Node000018" class="edge">
<title>Node1&#45;&gt;Node18</title>
<g id="a_edge18_Node000001_Node000018"><a xlink:title=" ">
<path fill="none" stroke="#63b8ff" d="M49.19,-429.68C48.57,-388.54 51.92,-234.69 133,-155 133.76,-154.25 134.54,-153.54 135.35,-152.85"/>
<polygon fill="#63b8ff" stroke="#63b8ff" points="137.22,-155.81 143.55,-147.31 133.31,-150.01 137.22,-155.81"/>
</a>
</g>
</g>
<!-- Node19 -->
<g id="Node000019" class="node">
<title>Node19</title>
<g id="a_Node000019"><a xlink:href="group__pcf8563__base__driver.html#ga0ec9787e27f3d4679522d3016a8ba9c2" target="_top" xlink:title="enable or disable timer enable">
<polygon fill="white" stroke="#666666" points="268.25,-108 138.25,-108 138.25,-88 268.25,-88 268.25,-108"/>
<text xml:space="preserve" text-anchor="middle" x="203.25" y="-94.5" font-family="Helvetica,sans-Serif" font-size="10.00">pcf8563_set_timer_enable</text>
</a>
</g>
</g>
<!-- Node1&#45;&gt;Node19 -->
<g id="edge19_Node000001_Node000019" class="edge">
<title>Node1&#45;&gt;Node19</title>
<g id="a_edge19_Node000001_Node000019"><a xlink:title=" ">
<path fill="none" stroke="#63b8ff" d="M50.78,-429.65C57.16,-379.66 87.06,-163.62 133,-117 133.75,-116.24 134.52,-115.51 135.32,-114.81"/>
<polygon fill="#63b8ff" stroke="#63b8ff" points="137.2,-117.77 143.44,-109.21 133.22,-112.01 137.2,-117.77"/>
</a>
</g>
</g>
<!-- Node20 -->
<g id="Node000020" class="node">
<title>Node20</title>
<g id="a_Node000020"><a xlink:href="group__pcf8563__base__driver.html#ga5b1b0012696aa2cb21dffbeb2b76b39e" target="_top" xlink:title="enable or disable timer interrupt">
<polygon fill="white" stroke="#666666" points="271.62,-70 134.88,-70 134.88,-50 271.62,-50 271.62,-70"/>
<text xml:space="preserve" text-anchor="middle" x="203.25" y="-56.5" font-family="Helvetica,sans-Serif" font-size="10.00">pcf8563_set_timer_interrupt</text>
</a>
</g>
</g>
<!-- Node1&#45;&gt;Node20 -->
<g id="edge20_Node000001_Node000020" class="edge">
<title>Node1&#45;&gt;Node20</title>
<g id="a_edge20_Node000001_Node000020"><a xlink:title=" ">
<path fill="none" stroke="#63b8ff" d="M50.49,-429.54C55.77,-375.85 82.32,-131.78 133,-79 133.72,-78.25 134.46,-77.53 135.23,-76.84"/>
<polygon fill="#63b8ff" stroke="#63b8ff" points="136.9,-79.95 143.03,-71.31 132.85,-74.24 136.9,-79.95"/>
</a>
</g>
</g>
<!-- Node21 -->
<g id="Node000021" class="node">
<title>Node21</title>
<g id="a_Node000021"><a xlink:href="group__pcf8563__base__driver.html#ga07d5c26255de5955cf6abb84dfb512c1" target="_top" xlink:title="enable or disable week alarm">
<polygon fill="white" stroke="#666666" points="266.75,-32 139.75,-32 139.75,0 266.75,0 266.75,-32"/>
<text xml:space="preserve" text-anchor="start" x="147.75" y="-18.5" font-family="Helvetica,sans-Serif" font-size="10.00">pcf8563_set_week_alarm</text>
<text xml:space="preserve" text-anchor="middle" x="203.25" y="-6.5" font-family="Helvetica,sans-Serif" font-size="10.00">_enable</text>
</a>
</g>
</g>
<!-- Node1&#45;&gt;Node21 -->
<g id="edge21_Node000001_Node000021" class="edge">
<title>Node1&#45;&gt;Node21</title>
<g id="a_edge21_Node000001_Node000021"><a xlink:title=" ">
<path fill="none" stroke="#63b8ff" d="M50.32,-429.66C54.97,-373.18 79.85,-102.17 133,-41 133.36,-40.59 133.72,-40.19 134.09,-39.79"/>
<polygon fill="#63b8ff" stroke="#63b8ff" points="136.28,-42.52 141.62,-33.37 131.74,-37.2 136.28,-42.52"/>
</a>
</g>
</g>
<!-- Node10&#45;&gt;Node4 -->
<g id="edge10_Node000010_Node000004" class="edge">
<title>Node10&#45;&gt;Node4</title>
<g id="a_edge10_Node000010_Node000004"><a xlink:title=" ">
<path fill="none" stroke="#63b8ff" d="M257.68,-522.34C263.21,-524.89 268.59,-527.77 273.5,-531 305.82,-552.28 335,-586.39 352.81,-609.7"/>
<polygon fill="#63b8ff" stroke="#63b8ff" points="349.81,-611.53 358.6,-617.45 355.42,-607.34 349.81,-611.53"/>
</a>
</g>
</g>
</g>
</svg>
