<?xml version="1.0" encoding="UTF-8" standalone="no"?>
<!DOCTYPE svg PUBLIC "-//W3C//DTD SVG 1.1//EN"
 "http://www.w3.org/Graphics/SVG/1.1/DTD/svg11.dtd">
<!-- Generated by graphviz version 13.1.0 (20250701.0955)
 -->
<!-- Title: pcf8563_timer_disable Pages: 1 -->
<svg width="294pt" height="154pt"
 viewBox="0.00 0.00 294.00 154.00" xmlns="http://www.w3.org/2000/svg" xmlns:xlink="http://www.w3.org/1999/xlink">
<g id="graph0" class="graph" transform="scale(1 1) rotate(0) translate(4 150)">
<title>pcf8563_timer_disable</title>
<!-- Node1 -->
<g id="Node000001" class="node">
<title>Node1</title>
<g id="a_Node000001"><a xlink:title="timer example disable the timer">
<polygon fill="#999999" stroke="#666666" points="113.5,-80 0,-80 0,-60 113.5,-60 113.5,-80"/>
<text xml:space="preserve" text-anchor="middle" x="56.75" y="-66.5" font-family="Helvetica,sans-Serif" font-size="10.00">pcf8563_timer_disable</text>
</a>
</g>
</g>
<!-- Node2 -->
<g id="Node000002" class="node">
<title>Node2</title>
<g id="a_Node000002"><a xlink:href="group__pcf8563__base__driver.html#ga17f476e7d78bcec9d3489e8971316ac3" target="_top" xlink:title="close the chip">
<polygon fill="white" stroke="#666666" points="257.38,-146 178.38,-146 178.38,-126 257.38,-126 257.38,-146"/>
<text xml:space="preserve" text-anchor="middle" x="217.88" y="-132.5" font-family="Helvetica,sans-Serif" font-size="10.00">pcf8563_deinit</text>
</a>
</g>
</g>
<!-- Node1&#45;&gt;Node2 -->
<g id="edge1_Node000001_Node000002" class="edge">
<title>Node1&#45;&gt;Node2</title>
<g id="a_edge1_Node000001_Node000002"><a xlink:title=" ">
<path fill="none" stroke="#63b8ff" d="M75.54,-80.46C93.67,-90.79 122.85,-106.53 149.5,-117 155.16,-119.22 161.17,-121.3 167.19,-123.21"/>
<polygon fill="#63b8ff" stroke="#63b8ff" points="165.93,-126.48 176.51,-126.01 167.94,-119.78 165.93,-126.48"/>
</a>
</g>
</g>
<!-- Node3 -->
<g id="Node000003" class="node">
<title>Node3</title>
<g id="a_Node000003"><a xlink:href="group__pcf8563__interface__driver.html#ga8dcf97b554498417a887888ad724c580" target="_top" xlink:title="interface print format data">
<polygon fill="white" stroke="#666666" points="280.25,-108 155.5,-108 155.5,-76 280.25,-76 280.25,-108"/>
<text xml:space="preserve" text-anchor="start" x="163.5" y="-94.5" font-family="Helvetica,sans-Serif" font-size="10.00">pcf8563_interface_debug</text>
<text xml:space="preserve" text-anchor="middle" x="217.88" y="-82.5" font-family="Helvetica,sans-Serif" font-size="10.00">_print</text>
</a>
</g>
</g>
<!-- Node1&#45;&gt;Node3 -->
<g id="edge2_Node000001_Node000003" class="edge">
<title>Node1&#45;&gt;Node3</title>
<g id="a_edge2_Node000001_Node000003"><a xlink:title=" ">
<path fill="none" stroke="#63b8ff" d="M113.85,-77.76C123.54,-79.1 133.73,-80.51 143.79,-81.9"/>
<polygon fill="#63b8ff" stroke="#63b8ff" points="143.17,-85.34 153.55,-83.25 144.13,-78.41 143.17,-85.34"/>
</a>
</g>
</g>
<!-- Node4 -->
<g id="Node000004" class="node">
<title>Node4</title>
<g id="a_Node000004"><a xlink:href="group__pcf8563__base__driver.html#ga0ec9787e27f3d4679522d3016a8ba9c2" target="_top" xlink:title="enable or disable timer enable">
<polygon fill="white" stroke="#666666" points="282.88,-58 152.88,-58 152.88,-38 282.88,-38 282.88,-58"/>
<text xml:space="preserve" text-anchor="middle" x="217.88" y="-44.5" font-family="Helvetica,sans-Serif" font-size="10.00">pcf8563_set_timer_enable</text>
</a>
</g>
</g>
<!-- Node1&#45;&gt;Node4 -->
<g id="edge3_Node000001_Node000004" class="edge">
<title>Node1&#45;&gt;Node4</title>
<g id="a_edge3_Node000001_Node000004"><a xlink:title=" ">
<path fill="none" stroke="#63b8ff" d="M113.85,-62.24C122.76,-61.01 132.09,-59.72 141.36,-58.44"/>
<polygon fill="#63b8ff" stroke="#63b8ff" points="141.66,-61.93 151.09,-57.1 140.7,-55 141.66,-61.93"/>
</a>
</g>
</g>
<!-- Node5 -->
<g id="Node000005" class="node">
<title>Node5</title>
<g id="a_Node000005"><a xlink:href="group__pcf8563__base__driver.html#ga5b1b0012696aa2cb21dffbeb2b76b39e" target="_top" xlink:title="enable or disable timer interrupt">
<polygon fill="white" stroke="#666666" points="286.25,-20 149.5,-20 149.5,0 286.25,0 286.25,-20"/>
<text xml:space="preserve" text-anchor="middle" x="217.88" y="-6.5" font-family="Helvetica,sans-Serif" font-size="10.00">pcf8563_set_timer_interrupt</text>
</a>
</g>
</g>
<!-- Node1&#45;&gt;Node5 -->
<g id="edge4_Node000001_Node000005" class="edge">
<title>Node1&#45;&gt;Node5</title>
<g id="a_edge4_Node000001_Node000005"><a xlink:title=" ">
<path fill="none" stroke="#63b8ff" d="M78.53,-59.67C96.9,-50.79 124.57,-38.03 149.5,-29 154.59,-27.16 159.95,-25.38 165.32,-23.7"/>
<polygon fill="#63b8ff" stroke="#63b8ff" points="166.29,-27.07 174.86,-20.84 164.28,-20.36 166.29,-27.07"/>
</a>
</g>
</g>
</g>
</svg>
