<?xml version="1.0" encoding="UTF-8" standalone="no"?>
<!DOCTYPE svg PUBLIC "-//W3C//DTD SVG 1.1//EN"
 "http://www.w3.org/Graphics/SVG/1.1/DTD/svg11.dtd">
<!-- Generated by graphviz version 13.1.0 (20250701.0955)
 -->
<!-- Title: pcf8563_output_init Pages: 1 -->
<svg width="446pt" height="858pt"
 viewBox="0.00 0.00 446.00 858.00" xmlns="http://www.w3.org/2000/svg" xmlns:xlink="http://www.w3.org/1999/xlink">
<g id="graph0" class="graph" transform="scale(1 1) rotate(0) translate(4 854)">
<title>pcf8563_output_init</title>
<!-- Node1 -->
<g id="Node000001" class="node">
<title>Node1</title>
<g id="a_Node000001"><a xlink:title="output example init">
<polygon fill="#999999" stroke="#666666" points="100.75,-450 0,-450 0,-430 100.75,-430 100.75,-450"/>
<text xml:space="preserve" text-anchor="middle" x="50.38" y="-436.5" font-family="Helvetica,sans-Serif" font-size="10.00">pcf8563_output_init</text>
</a>
</g>
</g>
<!-- Node2 -->
<g id="Node000002" class="node">
<title>Node2</title>
<g id="a_Node000002"><a xlink:href="group__pcf8563__base__driver.html#ga17f476e7d78bcec9d3489e8971316ac3" target="_top" xlink:title="close the chip">
<polygon fill="white" stroke="#666666" points="246.5,-850 167.5,-850 167.5,-830 246.5,-830 246.5,-850"/>
<text xml:space="preserve" text-anchor="middle" x="207" y="-836.5" font-family="Helvetica,sans-Serif" font-size="10.00">pcf8563_deinit</text>
</a>
</g>
</g>
<!-- Node1&#45;&gt;Node2 -->
<g id="edge1_Node000001_Node000002" class="edge">
<title>Node1&#45;&gt;Node2</title>
<g id="a_edge1_Node000001_Node000002"><a xlink:title=" ">
<path fill="none" stroke="#63b8ff" d="M52.27,-450.3C57.25,-505.42 83.3,-764.96 136.75,-821 142.13,-826.64 149,-830.65 156.33,-833.51"/>
<polygon fill="#63b8ff" stroke="#63b8ff" points="155.23,-836.83 165.81,-836.46 157.3,-830.14 155.23,-836.83"/>
</a>
</g>
</g>
<!-- Node3 -->
<g id="Node000003" class="node">
<title>Node3</title>
<g id="a_Node000003"><a xlink:href="group__pcf8563__base__driver.html#ga83b0f5dc508a7e1f5a3c4a7cc30b58cb" target="_top" xlink:title="initialize the chip">
<polygon fill="white" stroke="#666666" points="241.25,-812 172.75,-812 172.75,-792 241.25,-792 241.25,-812"/>
<text xml:space="preserve" text-anchor="middle" x="207" y="-798.5" font-family="Helvetica,sans-Serif" font-size="10.00">pcf8563_init</text>
</a>
</g>
</g>
<!-- Node1&#45;&gt;Node3 -->
<g id="edge2_Node000001_Node000003" class="edge">
<title>Node1&#45;&gt;Node3</title>
<g id="a_edge2_Node000001_Node000003"><a xlink:title=" ">
<path fill="none" stroke="#63b8ff" d="M52.67,-450.42C59.24,-501.77 90.42,-727.49 136.75,-778 143.36,-785.21 152.26,-790.26 161.46,-793.78"/>
<polygon fill="#63b8ff" stroke="#63b8ff" points="160.25,-797.07 170.84,-796.81 162.4,-790.41 160.25,-797.07"/>
</a>
</g>
</g>
<!-- Node4 -->
<g id="Node000004" class="node">
<title>Node4</title>
<g id="a_Node000004"><a xlink:href="group__pcf8563__interface__driver.html#ga8dcf97b554498417a887888ad724c580" target="_top" xlink:title="interface print format data">
<polygon fill="white" stroke="#666666" points="438,-651 313.25,-651 313.25,-619 438,-619 438,-651"/>
<text xml:space="preserve" text-anchor="start" x="321.25" y="-637.5" font-family="Helvetica,sans-Serif" font-size="10.00">pcf8563_interface_debug</text>
<text xml:space="preserve" text-anchor="middle" x="375.62" y="-625.5" font-family="Helvetica,sans-Serif" font-size="10.00">_print</text>
</a>
</g>
</g>
<!-- Node1&#45;&gt;Node4 -->
<g id="edge3_Node000001_Node000004" class="edge">
<title>Node1&#45;&gt;Node4</title>
<g id="a_edge3_Node000001_Node000004"><a xlink:title=" ">
<path fill="none" stroke="#63b8ff" d="M52.62,-450.36C58.74,-499.42 87.35,-707.53 136.75,-745 186.5,-782.74 220.31,-770.64 277.25,-745 315.23,-727.9 344.38,-687.85 360.51,-661.09"/>
<polygon fill="#63b8ff" stroke="#63b8ff" points="363.49,-662.93 365.48,-652.53 357.43,-659.42 363.49,-662.93"/>
</a>
</g>
</g>
<!-- Node5 -->
<g id="Node000005" class="node">
<title>Node5</title>
<g id="a_Node000005"><a xlink:href="group__pcf8563__interface__driver.html#ga4692d53054f46d6a1f86223f2ba821fe" target="_top" xlink:title="interface delay ms">
<polygon fill="white" stroke="#666666" points="277.25,-736 136.75,-736 136.75,-716 277.25,-716 277.25,-736"/>
<text xml:space="preserve" text-anchor="middle" x="207" y="-722.5" font-family="Helvetica,sans-Serif" font-size="10.00">pcf8563_interface_delay_ms</text>
</a>
</g>
</g>
<!-- Node1&#45;&gt;Node5 -->
<g id="edge4_Node000001_Node000005" class="edge">
<title>Node1&#45;&gt;Node5</title>
<g id="a_edge4_Node000001_Node000005"><a xlink:title=" ">
<path fill="none" stroke="#63b8ff" d="M51.39,-450.5C52.04,-490.28 59.83,-633.22 136.75,-707 137.65,-707.86 138.58,-708.69 139.55,-709.48"/>
<polygon fill="#63b8ff" stroke="#63b8ff" points="137.42,-712.27 147.71,-714.79 141.24,-706.4 137.42,-712.27"/>
</a>
</g>
</g>
<!-- Node6 -->
<g id="Node000006" class="node">
<title>Node6</title>
<g id="a_Node000006"><a xlink:href="group__pcf8563__interface__driver.html#ga3dab4fc9bd87d3394d115607635003e2" target="_top" xlink:title="interface iic bus deinit">
<polygon fill="white" stroke="#666666" points="261.12,-698 152.88,-698 152.88,-666 261.12,-666 261.12,-698"/>
<text xml:space="preserve" text-anchor="start" x="160.88" y="-684.5" font-family="Helvetica,sans-Serif" font-size="10.00">pcf8563_interface_iic</text>
<text xml:space="preserve" text-anchor="middle" x="207" y="-672.5" font-family="Helvetica,sans-Serif" font-size="10.00">_deinit</text>
</a>
</g>
</g>
<!-- Node1&#45;&gt;Node6 -->
<g id="edge5_Node000001_Node000006" class="edge">
<title>Node1&#45;&gt;Node6</title>
<g id="a_edge5_Node000001_Node000006"><a xlink:title=" ">
<path fill="none" stroke="#63b8ff" d="M52.44,-450.25C56.54,-484.51 74.34,-596.33 136.75,-657 138.75,-658.95 140.92,-660.75 143.21,-662.41"/>
<polygon fill="#63b8ff" stroke="#63b8ff" points="140.9,-665.1 151.26,-667.35 144.57,-659.13 140.9,-665.1"/>
</a>
</g>
</g>
<!-- Node7 -->
<g id="Node000007" class="node">
<title>Node7</title>
<g id="a_Node000007"><a xlink:href="group__pcf8563__interface__driver.html#ga0123117ea131186768f481ee10ebab62" target="_top" xlink:title="interface iic bus init">
<polygon fill="white" stroke="#666666" points="270.12,-648 143.88,-648 143.88,-628 270.12,-628 270.12,-648"/>
<text xml:space="preserve" text-anchor="middle" x="207" y="-634.5" font-family="Helvetica,sans-Serif" font-size="10.00">pcf8563_interface_iic_init</text>
</a>
</g>
</g>
<!-- Node1&#45;&gt;Node7 -->
<g id="edge6_Node000001_Node000007" class="edge">
<title>Node1&#45;&gt;Node7</title>
<g id="a_edge6_Node000001_Node000007"><a xlink:title=" ">
<path fill="none" stroke="#63b8ff" d="M53.2,-450.33C59.16,-481.01 81.03,-572.38 136.75,-619 138.03,-620.08 139.38,-621.09 140.76,-622.05"/>
<polygon fill="#63b8ff" stroke="#63b8ff" points="138.75,-624.93 149.18,-626.83 142.21,-618.84 138.75,-624.93"/>
</a>
</g>
</g>
<!-- Node8 -->
<g id="Node000008" class="node">
<title>Node8</title>
<g id="a_Node000008"><a xlink:href="group__pcf8563__interface__driver.html#ga226bc8c2598a4c19033ce5e6f66ce27d" target="_top" xlink:title="interface iic bus read">
<polygon fill="white" stroke="#666666" points="273.12,-610 140.88,-610 140.88,-590 273.12,-590 273.12,-610"/>
<text xml:space="preserve" text-anchor="middle" x="207" y="-596.5" font-family="Helvetica,sans-Serif" font-size="10.00">pcf8563_interface_iic_read</text>
</a>
</g>
</g>
<!-- Node1&#45;&gt;Node8 -->
<g id="edge7_Node000001_Node000008" class="edge">
<title>Node1&#45;&gt;Node8</title>
<g id="a_edge7_Node000001_Node000008"><a xlink:title=" ">
<path fill="none" stroke="#63b8ff" d="M54.62,-450.35C63.35,-476.49 89.94,-545.63 136.75,-581 138.32,-582.19 139.97,-583.3 141.66,-584.35"/>
<polygon fill="#63b8ff" stroke="#63b8ff" points="140.05,-587.45 150.54,-588.91 143.25,-581.23 140.05,-587.45"/>
</a>
</g>
</g>
<!-- Node9 -->
<g id="Node000009" class="node">
<title>Node9</title>
<g id="a_Node000009"><a xlink:href="group__pcf8563__interface__driver.html#gae5e7072c55754563646762f86d2dfaf1" target="_top" xlink:title="interface iic bus write">
<polygon fill="white" stroke="#666666" points="261.12,-572 152.88,-572 152.88,-540 261.12,-540 261.12,-572"/>
<text xml:space="preserve" text-anchor="start" x="160.88" y="-558.5" font-family="Helvetica,sans-Serif" font-size="10.00">pcf8563_interface_iic</text>
<text xml:space="preserve" text-anchor="middle" x="207" y="-546.5" font-family="Helvetica,sans-Serif" font-size="10.00">_write</text>
</a>
</g>
</g>
<!-- Node1&#45;&gt;Node9 -->
<g id="edge8_Node000001_Node000009" class="edge">
<title>Node1&#45;&gt;Node9</title>
<g id="a_edge8_Node000001_Node000009"><a xlink:title=" ">
<path fill="none" stroke="#63b8ff" d="M58.41,-450.22C71.67,-468.8 102.18,-508.26 136.75,-531 138.59,-532.21 140.5,-533.37 142.46,-534.49"/>
<polygon fill="#63b8ff" stroke="#63b8ff" points="140.73,-537.53 151.22,-538.97 143.91,-531.3 140.73,-537.53"/>
</a>
</g>
</g>
<!-- Node10 -->
<g id="Node000010" class="node">
<title>Node10</title>
<g id="a_Node000010"><a xlink:href="group__pcf8563__interface__driver.html#gacf3583de504d5b8be618bdedf0a0efe4" target="_top" xlink:title="interface receive callback">
<polygon fill="white" stroke="#666666" points="272,-522 142,-522 142,-490 272,-490 272,-522"/>
<text xml:space="preserve" text-anchor="start" x="150" y="-508.5" font-family="Helvetica,sans-Serif" font-size="10.00">pcf8563_interface_receive</text>
<text xml:space="preserve" text-anchor="middle" x="207" y="-496.5" font-family="Helvetica,sans-Serif" font-size="10.00">_callback</text>
</a>
</g>
</g>
<!-- Node1&#45;&gt;Node10 -->
<g id="edge9_Node000001_Node000010" class="edge">
<title>Node1&#45;&gt;Node10</title>
<g id="a_edge9_Node000001_Node000010"><a xlink:title=" ">
<path fill="none" stroke="#63b8ff" d="M71.47,-450.36C88.6,-459.02 114.01,-471.46 136.75,-481 140.34,-482.5 144.05,-484 147.8,-485.48"/>
<polygon fill="#63b8ff" stroke="#63b8ff" points="146.44,-488.7 157.03,-489.01 148.94,-482.17 146.44,-488.7"/>
</a>
</g>
</g>
<!-- Node11 -->
<g id="Node000011" class="node">
<title>Node11</title>
<g id="a_Node000011"><a xlink:href="group__pcf8563__base__driver.html#gac1f34cce5e6f6308d3dd28f173cfe235" target="_top" xlink:title="enable or disable alarm interrupt">
<polygon fill="white" stroke="#666666" points="276.5,-472 137.5,-472 137.5,-452 276.5,-452 276.5,-472"/>
<text xml:space="preserve" text-anchor="middle" x="207" y="-458.5" font-family="Helvetica,sans-Serif" font-size="10.00">pcf8563_set_alarm_interrupt</text>
</a>
</g>
</g>
<!-- Node1&#45;&gt;Node11 -->
<g id="edge11_Node000001_Node000011" class="edge">
<title>Node1&#45;&gt;Node11</title>
<g id="a_edge11_Node000001_Node000011"><a xlink:title=" ">
<path fill="none" stroke="#63b8ff" d="M101.15,-447.08C109.13,-448.22 117.56,-449.42 126.03,-450.62"/>
<polygon fill="#63b8ff" stroke="#63b8ff" points="125.27,-454.05 135.66,-451.99 126.26,-447.12 125.27,-454.05"/>
</a>
</g>
</g>
<!-- Node12 -->
<g id="Node000012" class="node">
<title>Node12</title>
<g id="a_Node000012"><a xlink:href="group__pcf8563__base__driver.html#ga7d94c9c54277d2686eaecae20f849f13" target="_top" xlink:title="enable or disable clock out enable">
<polygon fill="white" stroke="#666666" points="265.25,-434 148.75,-434 148.75,-402 265.25,-402 265.25,-434"/>
<text xml:space="preserve" text-anchor="start" x="156.75" y="-420.5" font-family="Helvetica,sans-Serif" font-size="10.00">pcf8563_set_clock_out</text>
<text xml:space="preserve" text-anchor="middle" x="207" y="-408.5" font-family="Helvetica,sans-Serif" font-size="10.00">_enable</text>
</a>
</g>
</g>
<!-- Node1&#45;&gt;Node12 -->
<g id="edge12_Node000001_Node000012" class="edge">
<title>Node1&#45;&gt;Node12</title>
<g id="a_edge12_Node000001_Node000012"><a xlink:title=" ">
<path fill="none" stroke="#63b8ff" d="M101.15,-432.92C112.71,-431.27 125.21,-429.49 137.42,-427.76"/>
<polygon fill="#63b8ff" stroke="#63b8ff" points="137.61,-431.27 147.02,-426.39 136.62,-424.34 137.61,-431.27"/>
</a>
</g>
</g>
<!-- Node13 -->
<g id="Node000013" class="node">
<title>Node13</title>
<g id="a_Node000013"><a xlink:href="group__pcf8563__base__driver.html#gac57418efeeacbeecf55bb8d398d5c74b" target="_top" xlink:title="enable or disable day alarm">
<polygon fill="white" stroke="#666666" points="266.75,-384 147.25,-384 147.25,-352 266.75,-352 266.75,-384"/>
<text xml:space="preserve" text-anchor="start" x="155.25" y="-370.5" font-family="Helvetica,sans-Serif" font-size="10.00">pcf8563_set_day_alarm</text>
<text xml:space="preserve" text-anchor="middle" x="207" y="-358.5" font-family="Helvetica,sans-Serif" font-size="10.00">_enable</text>
</a>
</g>
</g>
<!-- Node1&#45;&gt;Node13 -->
<g id="edge13_Node000001_Node000013" class="edge">
<title>Node1&#45;&gt;Node13</title>
<g id="a_edge13_Node000001_Node000013"><a xlink:title=" ">
<path fill="none" stroke="#63b8ff" d="M68.3,-429.65C85.24,-419.53 112.24,-404.09 136.75,-393 140.07,-391.5 143.51,-390.02 147,-388.58"/>
<polygon fill="#63b8ff" stroke="#63b8ff" points="148.15,-391.89 156.15,-384.95 145.56,-385.39 148.15,-391.89"/>
</a>
</g>
</g>
<!-- Node14 -->
<g id="Node000014" class="node">
<title>Node14</title>
<g id="a_Node000014"><a xlink:href="group__pcf8563__base__driver.html#ga08ab309aa5842c40b572062f6fd56300" target="_top" xlink:title="enable or disable hour alarm">
<polygon fill="white" stroke="#666666" points="268.25,-334 145.75,-334 145.75,-302 268.25,-302 268.25,-334"/>
<text xml:space="preserve" text-anchor="start" x="153.75" y="-320.5" font-family="Helvetica,sans-Serif" font-size="10.00">pcf8563_set_hour_alarm</text>
<text xml:space="preserve" text-anchor="middle" x="207" y="-308.5" font-family="Helvetica,sans-Serif" font-size="10.00">_enable</text>
</a>
</g>
</g>
<!-- Node1&#45;&gt;Node14 -->
<g id="edge14_Node000001_Node000014" class="edge">
<title>Node1&#45;&gt;Node14</title>
<g id="a_edge14_Node000001_Node000014"><a xlink:title=" ">
<path fill="none" stroke="#63b8ff" d="M57.84,-429.7C70.61,-410.13 100.96,-367.37 136.75,-343 138.53,-341.79 140.38,-340.62 142.28,-339.51"/>
<polygon fill="#63b8ff" stroke="#63b8ff" points="143.54,-342.8 150.77,-335.06 140.28,-336.61 143.54,-342.8"/>
</a>
</g>
</g>
<!-- Node15 -->
<g id="Node000015" class="node">
<title>Node15</title>
<g id="a_Node000015"><a xlink:href="group__pcf8563__base__driver.html#gac92342a5c25603546236d1d19666e246" target="_top" xlink:title="enable or disable minute alarm">
<polygon fill="white" stroke="#666666" points="258.88,-284 155.12,-284 155.12,-252 258.88,-252 258.88,-284"/>
<text xml:space="preserve" text-anchor="start" x="163.12" y="-270.5" font-family="Helvetica,sans-Serif" font-size="10.00">pcf8563_set_minute</text>
<text xml:space="preserve" text-anchor="middle" x="207" y="-258.5" font-family="Helvetica,sans-Serif" font-size="10.00">_alarm_enable</text>
</a>
</g>
</g>
<!-- Node1&#45;&gt;Node15 -->
<g id="edge15_Node000001_Node000015" class="edge">
<title>Node1&#45;&gt;Node15</title>
<g id="a_edge15_Node000001_Node000015"><a xlink:title=" ">
<path fill="none" stroke="#63b8ff" d="M54.53,-429.83C63.24,-403.4 90.08,-331.96 136.75,-293 139.28,-290.89 142,-288.95 144.85,-287.17"/>
<polygon fill="#63b8ff" stroke="#63b8ff" points="146.49,-290.26 153.62,-282.42 143.16,-284.11 146.49,-290.26"/>
</a>
</g>
</g>
<!-- Node16 -->
<g id="Node000016" class="node">
<title>Node16</title>
<g id="a_Node000016"><a xlink:href="group__pcf8563__base__driver.html#gafeac16ba2e54988d6685088e259858be" target="_top" xlink:title="enable or disable power on reset">
<polygon fill="white" stroke="#666666" points="265.25,-234 148.75,-234 148.75,-202 265.25,-202 265.25,-234"/>
<text xml:space="preserve" text-anchor="start" x="156.75" y="-220.5" font-family="Helvetica,sans-Serif" font-size="10.00">pcf8563_set_power_on</text>
<text xml:space="preserve" text-anchor="middle" x="207" y="-208.5" font-family="Helvetica,sans-Serif" font-size="10.00">_reset</text>
</a>
</g>
</g>
<!-- Node1&#45;&gt;Node16 -->
<g id="edge16_Node000001_Node000016" class="edge">
<title>Node1&#45;&gt;Node16</title>
<g id="a_edge16_Node000001_Node000016"><a xlink:title=" ">
<path fill="none" stroke="#63b8ff" d="M52.89,-429.79C58.21,-397.64 78.88,-297.36 136.75,-243 137.64,-242.17 138.55,-241.36 139.49,-240.59"/>
<polygon fill="#63b8ff" stroke="#63b8ff" points="141.12,-243.72 147.33,-235.14 137.12,-237.97 141.12,-243.72"/>
</a>
</g>
</g>
<!-- Node17 -->
<g id="Node000017" class="node">
<title>Node17</title>
<g id="a_Node000017"><a xlink:href="group__pcf8563__base__driver.html#gacb2ccc116a7a2991315a43879448cfc1" target="_top" xlink:title="enable or disable rtc stop">
<polygon fill="white" stroke="#666666" points="261.88,-184 152.12,-184 152.12,-164 261.88,-164 261.88,-184"/>
<text xml:space="preserve" text-anchor="middle" x="207" y="-170.5" font-family="Helvetica,sans-Serif" font-size="10.00">pcf8563_set_rtc_stop</text>
</a>
</g>
</g>
<!-- Node1&#45;&gt;Node17 -->
<g id="edge17_Node000001_Node000017" class="edge">
<title>Node1&#45;&gt;Node17</title>
<g id="a_edge17_Node000001_Node000017"><a xlink:title=" ">
<path fill="none" stroke="#63b8ff" d="M51.69,-429.76C53.41,-392.19 64.57,-260.63 136.75,-193 138.39,-191.47 140.14,-190.05 141.97,-188.75"/>
<polygon fill="#63b8ff" stroke="#63b8ff" points="143.53,-191.9 150.47,-183.89 140.06,-185.82 143.53,-191.9"/>
</a>
</g>
</g>
<!-- Node18 -->
<g id="Node000018" class="node">
<title>Node18</title>
<g id="a_Node000018"><a xlink:href="group__pcf8563__base__driver.html#ga5bc2ed4c53eea1d6855721e5c4f09576" target="_top" xlink:title="enable or disable test mode">
<polygon fill="white" stroke="#666666" points="267.12,-146 146.88,-146 146.88,-126 267.12,-126 267.12,-146"/>
<text xml:space="preserve" text-anchor="middle" x="207" y="-132.5" font-family="Helvetica,sans-Serif" font-size="10.00">pcf8563_set_test_mode</text>
</a>
</g>
</g>
<!-- Node1&#45;&gt;Node18 -->
<g id="edge18_Node000001_Node000018" class="edge">
<title>Node1&#45;&gt;Node18</title>
<g id="a_edge18_Node000001_Node000018"><a xlink:title=" ">
<path fill="none" stroke="#63b8ff" d="M51.15,-429.67C50.82,-388.51 55.28,-234.59 136.75,-155 137.51,-154.26 138.3,-153.54 139.11,-152.85"/>
<polygon fill="#63b8ff" stroke="#63b8ff" points="140.98,-155.82 147.32,-147.33 137.07,-150.01 140.98,-155.82"/>
</a>
</g>
</g>
<!-- Node19 -->
<g id="Node000019" class="node">
<title>Node19</title>
<g id="a_Node000019"><a xlink:href="group__pcf8563__base__driver.html#ga0ec9787e27f3d4679522d3016a8ba9c2" target="_top" xlink:title="enable or disable timer enable">
<polygon fill="white" stroke="#666666" points="272,-108 142,-108 142,-88 272,-88 272,-108"/>
<text xml:space="preserve" text-anchor="middle" x="207" y="-94.5" font-family="Helvetica,sans-Serif" font-size="10.00">pcf8563_set_timer_enable</text>
</a>
</g>
</g>
<!-- Node1&#45;&gt;Node19 -->
<g id="edge19_Node000001_Node000019" class="edge">
<title>Node1&#45;&gt;Node19</title>
<g id="a_edge19_Node000001_Node000019"><a xlink:title=" ">
<path fill="none" stroke="#63b8ff" d="M52.72,-429.65C59.4,-379.65 90.62,-163.56 136.75,-117 137.5,-116.24 138.27,-115.52 139.07,-114.82"/>
<polygon fill="#63b8ff" stroke="#63b8ff" points="140.95,-117.77 147.21,-109.22 136.99,-112.01 140.95,-117.77"/>
</a>
</g>
</g>
<!-- Node20 -->
<g id="Node000020" class="node">
<title>Node20</title>
<g id="a_Node000020"><a xlink:href="group__pcf8563__base__driver.html#ga5b1b0012696aa2cb21dffbeb2b76b39e" target="_top" xlink:title="enable or disable timer interrupt">
<polygon fill="white" stroke="#666666" points="275.38,-70 138.62,-70 138.62,-50 275.38,-50 275.38,-70"/>
<text xml:space="preserve" text-anchor="middle" x="207" y="-56.5" font-family="Helvetica,sans-Serif" font-size="10.00">pcf8563_set_timer_interrupt</text>
</a>
</g>
</g>
<!-- Node1&#45;&gt;Node20 -->
<g id="edge20_Node000001_Node000020" class="edge">
<title>Node1&#45;&gt;Node20</title>
<g id="a_edge20_Node000001_Node000020"><a xlink:title=" ">
<path fill="none" stroke="#63b8ff" d="M52.42,-429.53C58,-375.83 85.88,-131.71 136.75,-79 137.47,-78.25 138.22,-77.54 138.99,-76.85"/>
<polygon fill="#63b8ff" stroke="#63b8ff" points="140.65,-79.96 146.8,-71.33 136.61,-74.24 140.65,-79.96"/>
</a>
</g>
</g>
<!-- Node21 -->
<g id="Node000021" class="node">
<title>Node21</title>
<g id="a_Node000021"><a xlink:href="group__pcf8563__base__driver.html#ga07d5c26255de5955cf6abb84dfb512c1" target="_top" xlink:title="enable or disable week alarm">
<polygon fill="white" stroke="#666666" points="270.5,-32 143.5,-32 143.5,0 270.5,0 270.5,-32"/>
<text xml:space="preserve" text-anchor="start" x="151.5" y="-18.5" font-family="Helvetica,sans-Serif" font-size="10.00">pcf8563_set_week_alarm</text>
<text xml:space="preserve" text-anchor="middle" x="207" y="-6.5" font-family="Helvetica,sans-Serif" font-size="10.00">_enable</text>
</a>
</g>
</g>
<!-- Node1&#45;&gt;Node21 -->
<g id="edge21_Node000001_Node000021" class="edge">
<title>Node1&#45;&gt;Node21</title>
<g id="a_edge21_Node000001_Node000021"><a xlink:title=" ">
<path fill="none" stroke="#63b8ff" d="M52.24,-429.66C57.18,-373.16 83.42,-102.11 136.75,-41 137.11,-40.59 137.47,-40.19 137.84,-39.79"/>
<polygon fill="#63b8ff" stroke="#63b8ff" points="140.03,-42.53 145.38,-33.39 135.5,-37.19 140.03,-42.53"/>
</a>
</g>
</g>
<!-- Node10&#45;&gt;Node4 -->
<g id="edge10_Node000010_Node000004" class="edge">
<title>Node10&#45;&gt;Node4</title>
<g id="a_edge10_Node000010_Node000004"><a xlink:title=" ">
<path fill="none" stroke="#63b8ff" d="M261.43,-522.34C266.96,-524.89 272.34,-527.77 277.25,-531 309.57,-552.28 338.75,-586.39 356.56,-609.7"/>
<polygon fill="#63b8ff" stroke="#63b8ff" points="353.56,-611.53 362.35,-617.45 359.17,-607.34 353.56,-611.53"/>
</a>
</g>
</g>
</g>
</svg>
