<?xml version="1.0" encoding="UTF-8" standalone="no"?>
<!DOCTYPE svg PUBLIC "-//W3C//DTD SVG 1.1//EN"
 "http://www.w3.org/Graphics/SVG/1.1/DTD/svg11.dtd">
<!-- Generated by graphviz version 13.1.0 (20250701.0955)
 -->
<!-- Title: pcf8563_timer_init Pages: 1 -->
<svg width="280pt" height="820pt"
 viewBox="0.00 0.00 280.00 820.00" xmlns="http://www.w3.org/2000/svg" xmlns:xlink="http://www.w3.org/1999/xlink">
<g id="graph0" class="graph" transform="scale(1 1) rotate(0) translate(4 816)">
<title>pcf8563_timer_init</title>
<!-- Node1 -->
<g id="Node000001" class="node">
<title>Node1</title>
<g id="a_Node000001"><a xlink:title="timer example init">
<polygon fill="#999999" stroke="#666666" points="95.5,-428 0,-428 0,-408 95.5,-408 95.5,-428"/>
<text xml:space="preserve" text-anchor="middle" x="47.75" y="-414.5" font-family="Helvetica,sans-Serif" font-size="10.00">pcf8563_timer_init</text>
</a>
</g>
</g>
<!-- Node2 -->
<g id="Node000002" class="node">
<title>Node2</title>
<g id="a_Node000002"><a xlink:href="group__pcf8563__base__driver.html#ga17f476e7d78bcec9d3489e8971316ac3" target="_top" xlink:title="close the chip">
<polygon fill="white" stroke="#666666" points="241.25,-812 162.25,-812 162.25,-792 241.25,-792 241.25,-812"/>
<text xml:space="preserve" text-anchor="middle" x="201.75" y="-798.5" font-family="Helvetica,sans-Serif" font-size="10.00">pcf8563_deinit</text>
</a>
</g>
</g>
<!-- Node1&#45;&gt;Node2 -->
<g id="edge1_Node000001_Node000002" class="edge">
<title>Node1&#45;&gt;Node2</title>
<g id="a_edge1_Node000001_Node000002"><a xlink:title=" ">
<path fill="none" stroke="#63b8ff" d="M49.67,-428.22C54.66,-481.77 80.31,-729.46 131.5,-783 136.88,-788.63 143.76,-792.64 151.09,-795.5"/>
<polygon fill="#63b8ff" stroke="#63b8ff" points="149.99,-798.82 160.58,-798.44 152.07,-792.13 149.99,-798.82"/>
</a>
</g>
</g>
<!-- Node3 -->
<g id="Node000003" class="node">
<title>Node3</title>
<g id="a_Node000003"><a xlink:href="group__pcf8563__base__driver.html#ga83b0f5dc508a7e1f5a3c4a7cc30b58cb" target="_top" xlink:title="initialize the chip">
<polygon fill="white" stroke="#666666" points="236,-774 167.5,-774 167.5,-754 236,-754 236,-774"/>
<text xml:space="preserve" text-anchor="middle" x="201.75" y="-760.5" font-family="Helvetica,sans-Serif" font-size="10.00">pcf8563_init</text>
</a>
</g>
</g>
<!-- Node1&#45;&gt;Node3 -->
<g id="edge2_Node000001_Node000003" class="edge">
<title>Node1&#45;&gt;Node3</title>
<g id="a_edge2_Node000001_Node000003"><a xlink:title=" ">
<path fill="none" stroke="#63b8ff" d="M49.98,-428.47C56.15,-479.07 85.18,-697.74 131.5,-745 138.14,-751.77 146.95,-756.2 156.05,-759.07"/>
<polygon fill="#63b8ff" stroke="#63b8ff" points="155.15,-762.46 165.7,-761.5 156.86,-755.67 155.15,-762.46"/>
</a>
</g>
</g>
<!-- Node4 -->
<g id="Node000004" class="node">
<title>Node4</title>
<g id="a_Node000004"><a xlink:href="group__pcf8563__interface__driver.html#ga8dcf97b554498417a887888ad724c580" target="_top" xlink:title="interface print format data">
<polygon fill="white" stroke="#666666" points="264.12,-736 139.38,-736 139.38,-704 264.12,-704 264.12,-736"/>
<text xml:space="preserve" text-anchor="start" x="147.38" y="-722.5" font-family="Helvetica,sans-Serif" font-size="10.00">pcf8563_interface_debug</text>
<text xml:space="preserve" text-anchor="middle" x="201.75" y="-710.5" font-family="Helvetica,sans-Serif" font-size="10.00">_print</text>
</a>
</g>
</g>
<!-- Node1&#45;&gt;Node4 -->
<g id="edge3_Node000001_Node000004" class="edge">
<title>Node1&#45;&gt;Node4</title>
<g id="a_edge3_Node000001_Node000004"><a xlink:title=" ">
<path fill="none" stroke="#63b8ff" d="M48.7,-428.4C49.08,-468.53 55.82,-614.94 131.5,-695 131.98,-695.51 132.47,-696.01 132.97,-696.49"/>
<polygon fill="#63b8ff" stroke="#63b8ff" points="130.7,-699.15 140.71,-702.6 135.03,-693.66 130.7,-699.15"/>
</a>
</g>
</g>
<!-- Node5 -->
<g id="Node000005" class="node">
<title>Node5</title>
<g id="a_Node000005"><a xlink:href="group__pcf8563__interface__driver.html#ga4692d53054f46d6a1f86223f2ba821fe" target="_top" xlink:title="interface delay ms">
<polygon fill="white" stroke="#666666" points="272,-686 131.5,-686 131.5,-666 272,-666 272,-686"/>
<text xml:space="preserve" text-anchor="middle" x="201.75" y="-672.5" font-family="Helvetica,sans-Serif" font-size="10.00">pcf8563_interface_delay_ms</text>
</a>
</g>
</g>
<!-- Node1&#45;&gt;Node5 -->
<g id="edge4_Node000001_Node000005" class="edge">
<title>Node1&#45;&gt;Node5</title>
<g id="a_edge4_Node000001_Node000005"><a xlink:title=" ">
<path fill="none" stroke="#63b8ff" d="M49.08,-428.42C50.85,-465.43 61.95,-591.87 131.5,-657 132.41,-657.85 133.35,-658.67 134.33,-659.45"/>
<polygon fill="#63b8ff" stroke="#63b8ff" points="132.24,-662.26 142.54,-664.71 136.01,-656.37 132.24,-662.26"/>
</a>
</g>
</g>
<!-- Node6 -->
<g id="Node000006" class="node">
<title>Node6</title>
<g id="a_Node000006"><a xlink:href="group__pcf8563__interface__driver.html#ga3dab4fc9bd87d3394d115607635003e2" target="_top" xlink:title="interface iic bus deinit">
<polygon fill="white" stroke="#666666" points="255.88,-648 147.62,-648 147.62,-616 255.88,-616 255.88,-648"/>
<text xml:space="preserve" text-anchor="start" x="155.62" y="-634.5" font-family="Helvetica,sans-Serif" font-size="10.00">pcf8563_interface_iic</text>
<text xml:space="preserve" text-anchor="middle" x="201.75" y="-622.5" font-family="Helvetica,sans-Serif" font-size="10.00">_deinit</text>
</a>
</g>
</g>
<!-- Node1&#45;&gt;Node6 -->
<g id="edge5_Node000001_Node000006" class="edge">
<title>Node1&#45;&gt;Node6</title>
<g id="a_edge5_Node000001_Node000006"><a xlink:title=" ">
<path fill="none" stroke="#63b8ff" d="M50.33,-428.23C55.69,-459.55 76.06,-555.11 131.5,-607 133.54,-608.91 135.74,-610.68 138.05,-612.31"/>
<polygon fill="#63b8ff" stroke="#63b8ff" points="135.79,-615.03 146.16,-617.19 139.4,-609.04 135.79,-615.03"/>
</a>
</g>
</g>
<!-- Node7 -->
<g id="Node000007" class="node">
<title>Node7</title>
<g id="a_Node000007"><a xlink:href="group__pcf8563__interface__driver.html#ga0123117ea131186768f481ee10ebab62" target="_top" xlink:title="interface iic bus init">
<polygon fill="white" stroke="#666666" points="264.88,-598 138.62,-598 138.62,-578 264.88,-578 264.88,-598"/>
<text xml:space="preserve" text-anchor="middle" x="201.75" y="-584.5" font-family="Helvetica,sans-Serif" font-size="10.00">pcf8563_interface_iic_init</text>
</a>
</g>
</g>
<!-- Node1&#45;&gt;Node7 -->
<g id="edge6_Node000001_Node000007" class="edge">
<title>Node1&#45;&gt;Node7</title>
<g id="a_edge6_Node000001_Node000007"><a xlink:title=" ">
<path fill="none" stroke="#63b8ff" d="M51.35,-428.26C58.81,-455.59 82.94,-530.64 131.5,-569 133.01,-570.2 134.6,-571.32 136.24,-572.37"/>
<polygon fill="#63b8ff" stroke="#63b8ff" points="134.33,-575.32 144.8,-576.93 137.62,-569.14 134.33,-575.32"/>
</a>
</g>
</g>
<!-- Node8 -->
<g id="Node000008" class="node">
<title>Node8</title>
<g id="a_Node000008"><a xlink:href="group__pcf8563__interface__driver.html#ga226bc8c2598a4c19033ce5e6f66ce27d" target="_top" xlink:title="interface iic bus read">
<polygon fill="white" stroke="#666666" points="267.88,-560 135.62,-560 135.62,-540 267.88,-540 267.88,-560"/>
<text xml:space="preserve" text-anchor="middle" x="201.75" y="-546.5" font-family="Helvetica,sans-Serif" font-size="10.00">pcf8563_interface_iic_read</text>
</a>
</g>
</g>
<!-- Node1&#45;&gt;Node8 -->
<g id="edge7_Node000001_Node000008" class="edge">
<title>Node1&#45;&gt;Node8</title>
<g id="a_edge7_Node000001_Node000008"><a xlink:title=" ">
<path fill="none" stroke="#63b8ff" d="M53.3,-428.23C63.75,-450.49 91.65,-503.55 131.5,-531 133.47,-532.35 135.52,-533.61 137.65,-534.78"/>
<polygon fill="#63b8ff" stroke="#63b8ff" points="136.09,-537.92 146.64,-538.98 139.06,-531.57 136.09,-537.92"/>
</a>
</g>
</g>
<!-- Node9 -->
<g id="Node000009" class="node">
<title>Node9</title>
<g id="a_Node000009"><a xlink:href="group__pcf8563__interface__driver.html#gae5e7072c55754563646762f86d2dfaf1" target="_top" xlink:title="interface iic bus write">
<polygon fill="white" stroke="#666666" points="255.88,-522 147.62,-522 147.62,-490 255.88,-490 255.88,-522"/>
<text xml:space="preserve" text-anchor="start" x="155.62" y="-508.5" font-family="Helvetica,sans-Serif" font-size="10.00">pcf8563_interface_iic</text>
<text xml:space="preserve" text-anchor="middle" x="201.75" y="-496.5" font-family="Helvetica,sans-Serif" font-size="10.00">_write</text>
</a>
</g>
</g>
<!-- Node1&#45;&gt;Node9 -->
<g id="edge8_Node000001_Node000009" class="edge">
<title>Node1&#45;&gt;Node9</title>
<g id="a_edge8_Node000001_Node000009"><a xlink:title=" ">
<path fill="none" stroke="#63b8ff" d="M60.03,-428.39C75.27,-442 103.75,-465.89 131.5,-481 134,-482.36 136.6,-483.68 139.25,-484.95"/>
<polygon fill="#63b8ff" stroke="#63b8ff" points="137.72,-488.1 148.28,-488.96 140.57,-481.7 137.72,-488.1"/>
</a>
</g>
</g>
<!-- Node10 -->
<g id="Node000010" class="node">
<title>Node10</title>
<g id="a_Node000010"><a xlink:href="group__pcf8563__base__driver.html#gac1f34cce5e6f6308d3dd28f173cfe235" target="_top" xlink:title="enable or disable alarm interrupt">
<polygon fill="white" stroke="#666666" points="271.25,-472 132.25,-472 132.25,-452 271.25,-452 271.25,-472"/>
<text xml:space="preserve" text-anchor="middle" x="201.75" y="-458.5" font-family="Helvetica,sans-Serif" font-size="10.00">pcf8563_set_alarm_interrupt</text>
</a>
</g>
</g>
<!-- Node1&#45;&gt;Node10 -->
<g id="edge9_Node000001_Node000010" class="edge">
<title>Node1&#45;&gt;Node10</title>
<g id="a_edge9_Node000001_Node000010"><a xlink:title=" ">
<path fill="none" stroke="#63b8ff" d="M82.51,-428.41C97.49,-432.98 115.35,-438.35 131.5,-443 137.79,-444.81 144.42,-446.68 150.98,-448.51"/>
<polygon fill="#63b8ff" stroke="#63b8ff" points="149.85,-451.83 160.42,-451.12 151.71,-445.08 149.85,-451.83"/>
</a>
</g>
</g>
<!-- Node11 -->
<g id="Node000011" class="node">
<title>Node11</title>
<g id="a_Node000011"><a xlink:href="group__pcf8563__base__driver.html#ga7d94c9c54277d2686eaecae20f849f13" target="_top" xlink:title="enable or disable clock out enable">
<polygon fill="white" stroke="#666666" points="260,-434 143.5,-434 143.5,-402 260,-402 260,-434"/>
<text xml:space="preserve" text-anchor="start" x="151.5" y="-420.5" font-family="Helvetica,sans-Serif" font-size="10.00">pcf8563_set_clock_out</text>
<text xml:space="preserve" text-anchor="middle" x="201.75" y="-408.5" font-family="Helvetica,sans-Serif" font-size="10.00">_enable</text>
</a>
</g>
</g>
<!-- Node1&#45;&gt;Node11 -->
<g id="edge10_Node000001_Node000011" class="edge">
<title>Node1&#45;&gt;Node11</title>
<g id="a_edge10_Node000001_Node000011"><a xlink:title=" ">
<path fill="none" stroke="#63b8ff" d="M95.6,-418C107.08,-418 119.62,-418 131.9,-418"/>
<polygon fill="#63b8ff" stroke="#63b8ff" points="131.56,-421.5 141.56,-418 131.56,-414.5 131.56,-421.5"/>
</a>
</g>
</g>
<!-- Node12 -->
<g id="Node000012" class="node">
<title>Node12</title>
<g id="a_Node000012"><a xlink:href="group__pcf8563__base__driver.html#gac57418efeeacbeecf55bb8d398d5c74b" target="_top" xlink:title="enable or disable day alarm">
<polygon fill="white" stroke="#666666" points="261.5,-384 142,-384 142,-352 261.5,-352 261.5,-384"/>
<text xml:space="preserve" text-anchor="start" x="150" y="-370.5" font-family="Helvetica,sans-Serif" font-size="10.00">pcf8563_set_day_alarm</text>
<text xml:space="preserve" text-anchor="middle" x="201.75" y="-358.5" font-family="Helvetica,sans-Serif" font-size="10.00">_enable</text>
</a>
</g>
</g>
<!-- Node1&#45;&gt;Node12 -->
<g id="edge11_Node000001_Node000012" class="edge">
<title>Node1&#45;&gt;Node12</title>
<g id="a_edge11_Node000001_Node000012"><a xlink:title=" ">
<path fill="none" stroke="#63b8ff" d="M80.61,-407.52C97.81,-401.86 119.61,-394.69 139.91,-388.01"/>
<polygon fill="#63b8ff" stroke="#63b8ff" points="140.83,-391.39 149.24,-384.94 138.65,-384.74 140.83,-391.39"/>
</a>
</g>
</g>
<!-- Node13 -->
<g id="Node000013" class="node">
<title>Node13</title>
<g id="a_Node000013"><a xlink:href="group__pcf8563__base__driver.html#ga08ab309aa5842c40b572062f6fd56300" target="_top" xlink:title="enable or disable hour alarm">
<polygon fill="white" stroke="#666666" points="263,-334 140.5,-334 140.5,-302 263,-302 263,-334"/>
<text xml:space="preserve" text-anchor="start" x="148.5" y="-320.5" font-family="Helvetica,sans-Serif" font-size="10.00">pcf8563_set_hour_alarm</text>
<text xml:space="preserve" text-anchor="middle" x="201.75" y="-308.5" font-family="Helvetica,sans-Serif" font-size="10.00">_enable</text>
</a>
</g>
</g>
<!-- Node1&#45;&gt;Node13 -->
<g id="edge12_Node000001_Node000013" class="edge">
<title>Node1&#45;&gt;Node13</title>
<g id="a_edge12_Node000001_Node000013"><a xlink:title=" ">
<path fill="none" stroke="#63b8ff" d="M57.68,-407.64C71.87,-391.75 101.09,-361.28 131.5,-343 133.64,-341.72 135.85,-340.48 138.11,-339.3"/>
<polygon fill="#63b8ff" stroke="#63b8ff" points="139.42,-342.55 146.94,-335.08 136.41,-336.23 139.42,-342.55"/>
</a>
</g>
</g>
<!-- Node14 -->
<g id="Node000014" class="node">
<title>Node14</title>
<g id="a_Node000014"><a xlink:href="group__pcf8563__base__driver.html#gac92342a5c25603546236d1d19666e246" target="_top" xlink:title="enable or disable minute alarm">
<polygon fill="white" stroke="#666666" points="253.62,-284 149.88,-284 149.88,-252 253.62,-252 253.62,-284"/>
<text xml:space="preserve" text-anchor="start" x="157.88" y="-270.5" font-family="Helvetica,sans-Serif" font-size="10.00">pcf8563_set_minute</text>
<text xml:space="preserve" text-anchor="middle" x="201.75" y="-258.5" font-family="Helvetica,sans-Serif" font-size="10.00">_alarm_enable</text>
</a>
</g>
</g>
<!-- Node1&#45;&gt;Node14 -->
<g id="edge13_Node000001_Node000014" class="edge">
<title>Node1&#45;&gt;Node14</title>
<g id="a_edge13_Node000001_Node000014"><a xlink:title=" ">
<path fill="none" stroke="#63b8ff" d="M52.87,-407.65C62.82,-383.95 90.38,-325.33 131.5,-293 134.04,-291 136.76,-289.15 139.59,-287.44"/>
<polygon fill="#63b8ff" stroke="#63b8ff" points="141.04,-290.64 148.24,-282.87 137.76,-284.45 141.04,-290.64"/>
</a>
</g>
</g>
<!-- Node15 -->
<g id="Node000015" class="node">
<title>Node15</title>
<g id="a_Node000015"><a xlink:href="group__pcf8563__base__driver.html#gafeac16ba2e54988d6685088e259858be" target="_top" xlink:title="enable or disable power on reset">
<polygon fill="white" stroke="#666666" points="260,-234 143.5,-234 143.5,-202 260,-202 260,-234"/>
<text xml:space="preserve" text-anchor="start" x="151.5" y="-220.5" font-family="Helvetica,sans-Serif" font-size="10.00">pcf8563_set_power_on</text>
<text xml:space="preserve" text-anchor="middle" x="201.75" y="-208.5" font-family="Helvetica,sans-Serif" font-size="10.00">_reset</text>
</a>
</g>
</g>
<!-- Node1&#45;&gt;Node15 -->
<g id="edge14_Node000001_Node000015" class="edge">
<title>Node1&#45;&gt;Node15</title>
<g id="a_edge14_Node000001_Node000015"><a xlink:title=" ">
<path fill="none" stroke="#63b8ff" d="M50.75,-407.68C57.05,-377.82 79.28,-290.47 131.5,-243 132.4,-242.18 133.33,-241.39 134.28,-240.63"/>
<polygon fill="#63b8ff" stroke="#63b8ff" points="135.88,-243.77 142.19,-235.25 131.95,-237.98 135.88,-243.77"/>
</a>
</g>
</g>
<!-- Node16 -->
<g id="Node000016" class="node">
<title>Node16</title>
<g id="a_Node000016"><a xlink:href="group__pcf8563__base__driver.html#gacb2ccc116a7a2991315a43879448cfc1" target="_top" xlink:title="enable or disable rtc stop">
<polygon fill="white" stroke="#666666" points="256.62,-184 146.88,-184 146.88,-164 256.62,-164 256.62,-184"/>
<text xml:space="preserve" text-anchor="middle" x="201.75" y="-170.5" font-family="Helvetica,sans-Serif" font-size="10.00">pcf8563_set_rtc_stop</text>
</a>
</g>
</g>
<!-- Node1&#45;&gt;Node16 -->
<g id="edge15_Node000001_Node000016" class="edge">
<title>Node1&#45;&gt;Node16</title>
<g id="a_edge15_Node000001_Node000016"><a xlink:title=" ">
<path fill="none" stroke="#63b8ff" d="M49.33,-407.69C51.9,-372.19 65.3,-253.82 131.5,-193 133.15,-191.48 134.91,-190.08 136.76,-188.79"/>
<polygon fill="#63b8ff" stroke="#63b8ff" points="138.31,-191.94 145.3,-183.97 134.87,-185.84 138.31,-191.94"/>
</a>
</g>
</g>
<!-- Node17 -->
<g id="Node000017" class="node">
<title>Node17</title>
<g id="a_Node000017"><a xlink:href="group__pcf8563__base__driver.html#ga5bc2ed4c53eea1d6855721e5c4f09576" target="_top" xlink:title="enable or disable test mode">
<polygon fill="white" stroke="#666666" points="261.88,-146 141.62,-146 141.62,-126 261.88,-126 261.88,-146"/>
<text xml:space="preserve" text-anchor="middle" x="201.75" y="-132.5" font-family="Helvetica,sans-Serif" font-size="10.00">pcf8563_set_test_mode</text>
</a>
</g>
</g>
<!-- Node1&#45;&gt;Node17 -->
<g id="edge16_Node000001_Node000017" class="edge">
<title>Node1&#45;&gt;Node17</title>
<g id="a_edge16_Node000001_Node000017"><a xlink:title=" ">
<path fill="none" stroke="#63b8ff" d="M48.71,-407.66C49.12,-368.5 56.02,-227.74 131.5,-155 132.4,-154.13 133.33,-153.31 134.3,-152.52"/>
<polygon fill="#63b8ff" stroke="#63b8ff" points="135.99,-155.59 142.45,-147.19 132.16,-149.73 135.99,-155.59"/>
</a>
</g>
</g>
<!-- Node18 -->
<g id="Node000018" class="node">
<title>Node18</title>
<g id="a_Node000018"><a xlink:href="group__pcf8563__base__driver.html#ga0ec9787e27f3d4679522d3016a8ba9c2" target="_top" xlink:title="enable or disable timer enable">
<polygon fill="white" stroke="#666666" points="266.75,-108 136.75,-108 136.75,-88 266.75,-88 266.75,-108"/>
<text xml:space="preserve" text-anchor="middle" x="201.75" y="-94.5" font-family="Helvetica,sans-Serif" font-size="10.00">pcf8563_set_timer_enable</text>
</a>
</g>
</g>
<!-- Node1&#45;&gt;Node18 -->
<g id="edge17_Node000001_Node000018" class="edge">
<title>Node1&#45;&gt;Node18</title>
<g id="a_edge17_Node000001_Node000018"><a xlink:title=" ">
<path fill="none" stroke="#63b8ff" d="M48.23,-407.7C46.67,-365.21 46.59,-201.86 131.5,-117 132.25,-116.25 133.03,-115.53 133.83,-114.83"/>
<polygon fill="#63b8ff" stroke="#63b8ff" points="135.71,-117.79 141.99,-109.26 131.76,-112.01 135.71,-117.79"/>
</a>
</g>
</g>
<!-- Node19 -->
<g id="Node000019" class="node">
<title>Node19</title>
<g id="a_Node000019"><a xlink:href="group__pcf8563__base__driver.html#ga5b1b0012696aa2cb21dffbeb2b76b39e" target="_top" xlink:title="enable or disable timer interrupt">
<polygon fill="white" stroke="#666666" points="270.12,-70 133.38,-70 133.38,-50 270.12,-50 270.12,-70"/>
<text xml:space="preserve" text-anchor="middle" x="201.75" y="-56.5" font-family="Helvetica,sans-Serif" font-size="10.00">pcf8563_set_timer_interrupt</text>
</a>
</g>
</g>
<!-- Node1&#45;&gt;Node19 -->
<g id="edge18_Node000001_Node000019" class="edge">
<title>Node1&#45;&gt;Node19</title>
<g id="a_edge18_Node000001_Node000019"><a xlink:title=" ">
<path fill="none" stroke="#63b8ff" d="M49.85,-407.83C55.58,-356.72 83.57,-128.31 131.5,-79 132.22,-78.26 132.97,-77.54 133.74,-76.85"/>
<polygon fill="#63b8ff" stroke="#63b8ff" points="135.4,-79.96 141.57,-71.35 131.38,-74.24 135.4,-79.96"/>
</a>
</g>
</g>
<!-- Node20 -->
<g id="Node000020" class="node">
<title>Node20</title>
<g id="a_Node000020"><a xlink:href="group__pcf8563__base__driver.html#ga07d5c26255de5955cf6abb84dfb512c1" target="_top" xlink:title="enable or disable week alarm">
<polygon fill="white" stroke="#666666" points="265.25,-32 138.25,-32 138.25,0 265.25,0 265.25,-32"/>
<text xml:space="preserve" text-anchor="start" x="146.25" y="-18.5" font-family="Helvetica,sans-Serif" font-size="10.00">pcf8563_set_week_alarm</text>
<text xml:space="preserve" text-anchor="middle" x="201.75" y="-6.5" font-family="Helvetica,sans-Serif" font-size="10.00">_enable</text>
</a>
</g>
</g>
<!-- Node1&#45;&gt;Node20 -->
<g id="edge19_Node000001_Node000020" class="edge">
<title>Node1&#45;&gt;Node20</title>
<g id="a_edge19_Node000001_Node000020"><a xlink:title=" ">
<path fill="none" stroke="#63b8ff" d="M49.7,-407.52C54.84,-352.6 81.12,-98.42 131.5,-41 131.86,-40.59 132.22,-40.19 132.6,-39.79"/>
<polygon fill="#63b8ff" stroke="#63b8ff" points="134.78,-42.53 140.15,-33.4 130.26,-37.19 134.78,-42.53"/>
</a>
</g>
</g>
</g>
</svg>
