<?xml version="1.0" encoding="UTF-8" standalone="no"?>
<!DOCTYPE svg PUBLIC "-//W3C//DTD SVG 1.1//EN"
 "http://www.w3.org/Graphics/SVG/1.1/DTD/svg11.dtd">
<!-- Generated by graphviz version 13.1.0 (20250701.0955)
 -->
<!-- Title: pcf8563_timer_enable Pages: 1 -->
<svg width="292pt" height="268pt"
 viewBox="0.00 0.00 292.00 268.00" xmlns="http://www.w3.org/2000/svg" xmlns:xlink="http://www.w3.org/1999/xlink">
<g id="graph0" class="graph" transform="scale(1 1) rotate(0) translate(4 264)">
<title>pcf8563_timer_enable</title>
<!-- Node1 -->
<g id="Node000001" class="node">
<title>Node1</title>
<g id="a_Node000001"><a xlink:title="timer example enable the timer">
<polygon fill="#999999" stroke="#666666" points="111.25,-134 0,-134 0,-114 111.25,-114 111.25,-134"/>
<text xml:space="preserve" text-anchor="middle" x="55.62" y="-120.5" font-family="Helvetica,sans-Serif" font-size="10.00">pcf8563_timer_enable</text>
</a>
</g>
</g>
<!-- Node2 -->
<g id="Node000002" class="node">
<title>Node2</title>
<g id="a_Node000002"><a xlink:href="group__pcf8563__base__driver.html#gafe26b795bf9a5f4c5b3678c88268e972" target="_top" xlink:title="clear status">
<polygon fill="white" stroke="#666666" points="270.12,-260 161.12,-260 161.12,-240 270.12,-240 270.12,-260"/>
<text xml:space="preserve" text-anchor="middle" x="215.62" y="-246.5" font-family="Helvetica,sans-Serif" font-size="10.00">pcf8563_clear_status</text>
</a>
</g>
</g>
<!-- Node1&#45;&gt;Node2 -->
<g id="edge1_Node000001_Node000002" class="edge">
<title>Node1&#45;&gt;Node2</title>
<g id="a_edge1_Node000001_Node000002"><a xlink:title=" ">
<path fill="none" stroke="#63b8ff" d="M62.42,-134.3C74.99,-155.68 106.91,-205.06 147.25,-231 149.49,-232.44 151.85,-233.78 154.27,-235.01"/>
<polygon fill="#63b8ff" stroke="#63b8ff" points="152.64,-238.12 163.2,-238.94 155.46,-231.71 152.64,-238.12"/>
</a>
</g>
</g>
<!-- Node3 -->
<g id="Node000003" class="node">
<title>Node3</title>
<g id="a_Node000003"><a xlink:href="group__pcf8563__base__driver.html#ga17f476e7d78bcec9d3489e8971316ac3" target="_top" xlink:title="close the chip">
<polygon fill="white" stroke="#666666" points="255.12,-222 176.12,-222 176.12,-202 255.12,-202 255.12,-222"/>
<text xml:space="preserve" text-anchor="middle" x="215.62" y="-208.5" font-family="Helvetica,sans-Serif" font-size="10.00">pcf8563_deinit</text>
</a>
</g>
</g>
<!-- Node1&#45;&gt;Node3 -->
<g id="edge2_Node000001_Node000003" class="edge">
<title>Node1&#45;&gt;Node3</title>
<g id="a_edge2_Node000001_Node000003"><a xlink:title=" ">
<path fill="none" stroke="#63b8ff" d="M67.42,-134.43C83.54,-149.45 115.4,-177.11 147.25,-193 152.82,-195.78 158.87,-198.21 164.97,-200.32"/>
<polygon fill="#63b8ff" stroke="#63b8ff" points="163.89,-203.65 174.47,-203.31 165.99,-196.97 163.89,-203.65"/>
</a>
</g>
</g>
<!-- Node4 -->
<g id="Node000004" class="node">
<title>Node4</title>
<g id="a_Node000004"><a xlink:href="group__pcf8563__interface__driver.html#ga8dcf97b554498417a887888ad724c580" target="_top" xlink:title="interface print format data">
<polygon fill="white" stroke="#666666" points="278,-184 153.25,-184 153.25,-152 278,-152 278,-184"/>
<text xml:space="preserve" text-anchor="start" x="161.25" y="-170.5" font-family="Helvetica,sans-Serif" font-size="10.00">pcf8563_interface_debug</text>
<text xml:space="preserve" text-anchor="middle" x="215.62" y="-158.5" font-family="Helvetica,sans-Serif" font-size="10.00">_print</text>
</a>
</g>
</g>
<!-- Node1&#45;&gt;Node4 -->
<g id="edge3_Node000001_Node000004" class="edge">
<title>Node1&#45;&gt;Node4</title>
<g id="a_edge3_Node000001_Node000004"><a xlink:title=" ">
<path fill="none" stroke="#63b8ff" d="M94.07,-134.43C109.26,-138.66 127.31,-143.69 144.77,-148.55"/>
<polygon fill="#63b8ff" stroke="#63b8ff" points="143.49,-151.82 154.06,-151.14 145.37,-145.08 143.49,-151.82"/>
</a>
</g>
</g>
<!-- Node5 -->
<g id="Node000005" class="node">
<title>Node5</title>
<g id="a_Node000005"><a xlink:href="group__pcf8563__base__driver.html#ga0ec9787e27f3d4679522d3016a8ba9c2" target="_top" xlink:title="enable or disable timer enable">
<polygon fill="white" stroke="#666666" points="280.62,-134 150.62,-134 150.62,-114 280.62,-114 280.62,-134"/>
<text xml:space="preserve" text-anchor="middle" x="215.62" y="-120.5" font-family="Helvetica,sans-Serif" font-size="10.00">pcf8563_set_timer_enable</text>
</a>
</g>
</g>
<!-- Node1&#45;&gt;Node5 -->
<g id="edge4_Node000001_Node000005" class="edge">
<title>Node1&#45;&gt;Node5</title>
<g id="a_edge4_Node000001_Node000005"><a xlink:title=" ">
<path fill="none" stroke="#63b8ff" d="M111.44,-124C120.31,-124 129.63,-124 138.9,-124"/>
<polygon fill="#63b8ff" stroke="#63b8ff" points="138.62,-127.5 148.62,-124 138.62,-120.5 138.62,-127.5"/>
</a>
</g>
</g>
<!-- Node6 -->
<g id="Node000006" class="node">
<title>Node6</title>
<g id="a_Node000006"><a xlink:href="group__pcf8563__base__driver.html#ga72526ad962b718a27d263313079f01ae" target="_top" xlink:title="set timer freq">
<polygon fill="white" stroke="#666666" points="274.62,-96 156.62,-96 156.62,-76 274.62,-76 274.62,-96"/>
<text xml:space="preserve" text-anchor="middle" x="215.62" y="-82.5" font-family="Helvetica,sans-Serif" font-size="10.00">pcf8563_set_timer_freq</text>
</a>
</g>
</g>
<!-- Node1&#45;&gt;Node6 -->
<g id="edge5_Node000001_Node000006" class="edge">
<title>Node1&#45;&gt;Node6</title>
<g id="a_edge5_Node000001_Node000006"><a xlink:title=" ">
<path fill="none" stroke="#63b8ff" d="M100.22,-113.52C118.78,-109.05 140.64,-103.79 160.24,-99.08"/>
<polygon fill="#63b8ff" stroke="#63b8ff" points="160.8,-102.55 169.7,-96.8 159.16,-95.74 160.8,-102.55"/>
</a>
</g>
</g>
<!-- Node7 -->
<g id="Node000007" class="node">
<title>Node7</title>
<g id="a_Node000007"><a xlink:href="group__pcf8563__base__driver.html#ga5b1b0012696aa2cb21dffbeb2b76b39e" target="_top" xlink:title="enable or disable timer interrupt">
<polygon fill="white" stroke="#666666" points="284,-58 147.25,-58 147.25,-38 284,-38 284,-58"/>
<text xml:space="preserve" text-anchor="middle" x="215.62" y="-44.5" font-family="Helvetica,sans-Serif" font-size="10.00">pcf8563_set_timer_interrupt</text>
</a>
</g>
</g>
<!-- Node1&#45;&gt;Node7 -->
<g id="edge6_Node000001_Node000007" class="edge">
<title>Node1&#45;&gt;Node7</title>
<g id="a_edge6_Node000001_Node000007"><a xlink:title=" ">
<path fill="none" stroke="#63b8ff" d="M70.36,-113.59C87.53,-101 118.2,-79.91 147.25,-67 151.26,-65.22 155.48,-63.56 159.76,-62.03"/>
<polygon fill="#63b8ff" stroke="#63b8ff" points="160.66,-65.42 169.05,-58.96 158.46,-58.78 160.66,-65.42"/>
</a>
</g>
</g>
<!-- Node8 -->
<g id="Node000008" class="node">
<title>Node8</title>
<g id="a_Node000008"><a xlink:href="group__pcf8563__base__driver.html#gade3f5732bd2b29f17d7630f5493adb9c" target="_top" xlink:title="set timer value">
<polygon fill="white" stroke="#666666" points="278,-20 153.25,-20 153.25,0 278,0 278,-20"/>
<text xml:space="preserve" text-anchor="middle" x="215.62" y="-6.5" font-family="Helvetica,sans-Serif" font-size="10.00">pcf8563_set_timer_value</text>
</a>
</g>
</g>
<!-- Node1&#45;&gt;Node8 -->
<g id="edge7_Node000001_Node000008" class="edge">
<title>Node1&#45;&gt;Node8</title>
<g id="a_edge7_Node000001_Node000008"><a xlink:title=" ">
<path fill="none" stroke="#63b8ff" d="M63.54,-113.69C77.19,-94.16 109.56,-51.69 147.25,-29 149.71,-27.52 152.29,-26.15 154.95,-24.88"/>
<polygon fill="#63b8ff" stroke="#63b8ff" points="156.2,-28.15 164.08,-21.08 153.51,-21.69 156.2,-28.15"/>
</a>
</g>
</g>
</g>
</svg>
