<?xml version="1.0" encoding="UTF-8" standalone="no"?>
<!DOCTYPE svg PUBLIC "-//W3C//DTD SVG 1.1//EN"
 "http://www.w3.org/Graphics/SVG/1.1/DTD/svg11.dtd">
<!-- Generated by graphviz version 13.1.0 (20250701.0955)
 -->
<!-- Title: pcf8563_alarm_enable Pages: 1 -->
<svg width="297pt" height="556pt"
 viewBox="0.00 0.00 297.00 556.00" xmlns="http://www.w3.org/2000/svg" xmlns:xlink="http://www.w3.org/1999/xlink">
<g id="graph0" class="graph" transform="scale(1 1) rotate(0) translate(4 552)">
<title>pcf8563_alarm_enable</title>
<!-- Node1 -->
<g id="Node000001" class="node">
<title>Node1</title>
<g id="a_Node000001"><a xlink:title="alarm example enable the alarm">
<polygon fill="#999999" stroke="#666666" points="113.5,-296 0,-296 0,-276 113.5,-276 113.5,-296"/>
<text xml:space="preserve" text-anchor="middle" x="56.75" y="-282.5" font-family="Helvetica,sans-Serif" font-size="10.00">pcf8563_alarm_enable</text>
</a>
</g>
</g>
<!-- Node2 -->
<g id="Node000002" class="node">
<title>Node2</title>
<g id="a_Node000002"><a xlink:href="group__pcf8563__base__driver.html#gafe26b795bf9a5f4c5b3678c88268e972" target="_top" xlink:title="clear status">
<polygon fill="white" stroke="#666666" points="273.5,-548 164.5,-548 164.5,-528 273.5,-528 273.5,-548"/>
<text xml:space="preserve" text-anchor="middle" x="219" y="-534.5" font-family="Helvetica,sans-Serif" font-size="10.00">pcf8563_clear_status</text>
</a>
</g>
</g>
<!-- Node1&#45;&gt;Node2 -->
<g id="edge1_Node000001_Node000002" class="edge">
<title>Node1&#45;&gt;Node2</title>
<g id="a_edge1_Node000001_Node000002"><a xlink:title=" ">
<path fill="none" stroke="#63b8ff" d="M58.61,-296.18C62.22,-332.35 79.4,-455.87 149.5,-519 151.12,-520.46 152.83,-521.8 154.63,-523.04"/>
<polygon fill="#63b8ff" stroke="#63b8ff" points="152.45,-525.83 162.88,-527.7 155.9,-519.74 152.45,-525.83"/>
</a>
</g>
</g>
<!-- Node3 -->
<g id="Node000003" class="node">
<title>Node3</title>
<g id="a_Node000003"><a xlink:href="group__pcf8563__base__driver.html#ga17f476e7d78bcec9d3489e8971316ac3" target="_top" xlink:title="close the chip">
<polygon fill="white" stroke="#666666" points="258.5,-510 179.5,-510 179.5,-490 258.5,-490 258.5,-510"/>
<text xml:space="preserve" text-anchor="middle" x="219" y="-496.5" font-family="Helvetica,sans-Serif" font-size="10.00">pcf8563_deinit</text>
</a>
</g>
</g>
<!-- Node1&#45;&gt;Node3 -->
<g id="edge2_Node000001_Node000003" class="edge">
<title>Node1&#45;&gt;Node3</title>
<g id="a_edge2_Node000001_Node000003"><a xlink:title=" ">
<path fill="none" stroke="#63b8ff" d="M59.49,-296.31C65.52,-328.74 88.59,-429.61 149.5,-481 155.01,-485.65 161.57,-489.16 168.42,-491.82"/>
<polygon fill="#63b8ff" stroke="#63b8ff" points="167.27,-495.13 177.86,-494.87 169.42,-488.47 167.27,-495.13"/>
</a>
</g>
</g>
<!-- Node4 -->
<g id="Node000004" class="node">
<title>Node4</title>
<g id="a_Node000004"><a xlink:href="group__pcf8563__interface__driver.html#ga8dcf97b554498417a887888ad724c580" target="_top" xlink:title="interface print format data">
<polygon fill="white" stroke="#666666" points="281.38,-472 156.62,-472 156.62,-440 281.38,-440 281.38,-472"/>
<text xml:space="preserve" text-anchor="start" x="164.62" y="-458.5" font-family="Helvetica,sans-Serif" font-size="10.00">pcf8563_interface_debug</text>
<text xml:space="preserve" text-anchor="middle" x="219" y="-446.5" font-family="Helvetica,sans-Serif" font-size="10.00">_print</text>
</a>
</g>
</g>
<!-- Node1&#45;&gt;Node4 -->
<g id="edge3_Node000001_Node000004" class="edge">
<title>Node1&#45;&gt;Node4</title>
<g id="a_edge3_Node000001_Node000004"><a xlink:title=" ">
<path fill="none" stroke="#63b8ff" d="M61.56,-296.41C71.72,-322.75 101.95,-392.68 149.5,-431 150.64,-431.92 151.81,-432.8 153.01,-433.65"/>
<polygon fill="#63b8ff" stroke="#63b8ff" points="151.11,-436.59 161.47,-438.82 154.76,-430.62 151.11,-436.59"/>
</a>
</g>
</g>
<!-- Node5 -->
<g id="Node000005" class="node">
<title>Node5</title>
<g id="a_Node000005"><a xlink:href="group__pcf8563__base__driver.html#gac1f34cce5e6f6308d3dd28f173cfe235" target="_top" xlink:title="enable or disable alarm interrupt">
<polygon fill="white" stroke="#666666" points="288.5,-422 149.5,-422 149.5,-402 288.5,-402 288.5,-422"/>
<text xml:space="preserve" text-anchor="middle" x="219" y="-408.5" font-family="Helvetica,sans-Serif" font-size="10.00">pcf8563_set_alarm_interrupt</text>
</a>
</g>
</g>
<!-- Node1&#45;&gt;Node5 -->
<g id="edge4_Node000001_Node000005" class="edge">
<title>Node1&#45;&gt;Node5</title>
<g id="a_edge4_Node000001_Node000005"><a xlink:title=" ">
<path fill="none" stroke="#63b8ff" d="M63.64,-296.31C76.42,-317.72 108.82,-367.14 149.5,-393 151.78,-394.45 154.18,-395.8 156.65,-397.04"/>
<polygon fill="#63b8ff" stroke="#63b8ff" points="155.19,-400.22 165.76,-400.99 157.98,-393.8 155.19,-400.22"/>
</a>
</g>
</g>
<!-- Node6 -->
<g id="Node000006" class="node">
<title>Node6</title>
<g id="a_Node000006"><a xlink:href="group__pcf8563__base__driver.html#ga13c39d2c71c1ae0830821f17d6a32fb9" target="_top" xlink:title="set day alarm">
<polygon fill="white" stroke="#666666" points="278.75,-384 159.25,-384 159.25,-364 278.75,-364 278.75,-384"/>
<text xml:space="preserve" text-anchor="middle" x="219" y="-370.5" font-family="Helvetica,sans-Serif" font-size="10.00">pcf8563_set_day_alarm</text>
</a>
</g>
</g>
<!-- Node1&#45;&gt;Node6 -->
<g id="edge5_Node000001_Node000006" class="edge">
<title>Node1&#45;&gt;Node6</title>
<g id="a_edge5_Node000001_Node000006"><a xlink:title=" ">
<path fill="none" stroke="#63b8ff" d="M68.7,-296.44C85.03,-311.48 117.32,-339.15 149.5,-355 152.98,-356.72 156.64,-358.3 160.39,-359.75"/>
<polygon fill="#63b8ff" stroke="#63b8ff" points="159.05,-362.99 169.64,-363.01 161.37,-356.39 159.05,-362.99"/>
</a>
</g>
</g>
<!-- Node7 -->
<g id="Node000007" class="node">
<title>Node7</title>
<g id="a_Node000007"><a xlink:href="group__pcf8563__base__driver.html#gac57418efeeacbeecf55bb8d398d5c74b" target="_top" xlink:title="enable or disable day alarm">
<polygon fill="white" stroke="#666666" points="278.75,-346 159.25,-346 159.25,-314 278.75,-314 278.75,-346"/>
<text xml:space="preserve" text-anchor="start" x="167.25" y="-332.5" font-family="Helvetica,sans-Serif" font-size="10.00">pcf8563_set_day_alarm</text>
<text xml:space="preserve" text-anchor="middle" x="219" y="-320.5" font-family="Helvetica,sans-Serif" font-size="10.00">_enable</text>
</a>
</g>
</g>
<!-- Node1&#45;&gt;Node7 -->
<g id="edge6_Node000001_Node000007" class="edge">
<title>Node1&#45;&gt;Node7</title>
<g id="a_edge6_Node000001_Node000007"><a xlink:title=" ">
<path fill="none" stroke="#63b8ff" d="M95.73,-296.43C111.36,-300.72 129.99,-305.84 147.94,-310.76"/>
<polygon fill="#63b8ff" stroke="#63b8ff" points="146.96,-314.12 157.53,-313.4 148.81,-307.37 146.96,-314.12"/>
</a>
</g>
</g>
<!-- Node8 -->
<g id="Node000008" class="node">
<title>Node8</title>
<g id="a_Node000008"><a xlink:href="group__pcf8563__base__driver.html#ga326159d8a79b6cba0847ce1f238a0c41" target="_top" xlink:title="set hour alarm">
<polygon fill="white" stroke="#666666" points="280.25,-296 157.75,-296 157.75,-276 280.25,-276 280.25,-296"/>
<text xml:space="preserve" text-anchor="middle" x="219" y="-282.5" font-family="Helvetica,sans-Serif" font-size="10.00">pcf8563_set_hour_alarm</text>
</a>
</g>
</g>
<!-- Node1&#45;&gt;Node8 -->
<g id="edge7_Node000001_Node000008" class="edge">
<title>Node1&#45;&gt;Node8</title>
<g id="a_edge7_Node000001_Node000008"><a xlink:title=" ">
<path fill="none" stroke="#63b8ff" d="M113.8,-286C124.25,-286 135.3,-286 146.15,-286"/>
<polygon fill="#63b8ff" stroke="#63b8ff" points="145.83,-289.5 155.83,-286 145.83,-282.5 145.83,-289.5"/>
</a>
</g>
</g>
<!-- Node9 -->
<g id="Node000009" class="node">
<title>Node9</title>
<g id="a_Node000009"><a xlink:href="group__pcf8563__base__driver.html#ga08ab309aa5842c40b572062f6fd56300" target="_top" xlink:title="enable or disable hour alarm">
<polygon fill="white" stroke="#666666" points="280.25,-258 157.75,-258 157.75,-226 280.25,-226 280.25,-258"/>
<text xml:space="preserve" text-anchor="start" x="165.75" y="-244.5" font-family="Helvetica,sans-Serif" font-size="10.00">pcf8563_set_hour_alarm</text>
<text xml:space="preserve" text-anchor="middle" x="219" y="-232.5" font-family="Helvetica,sans-Serif" font-size="10.00">_enable</text>
</a>
</g>
</g>
<!-- Node1&#45;&gt;Node9 -->
<g id="edge8_Node000001_Node000009" class="edge">
<title>Node1&#45;&gt;Node9</title>
<g id="a_edge8_Node000001_Node000009"><a xlink:title=" ">
<path fill="none" stroke="#63b8ff" d="M95.73,-275.57C111.13,-271.34 129.45,-266.31 147.15,-261.45"/>
<polygon fill="#63b8ff" stroke="#63b8ff" points="147.88,-264.88 156.6,-258.86 146.03,-258.13 147.88,-264.88"/>
</a>
</g>
</g>
<!-- Node10 -->
<g id="Node000010" class="node">
<title>Node10</title>
<g id="a_Node000010"><a xlink:href="group__pcf8563__base__driver.html#gad5af38925be32cc491df3900aef223cd" target="_top" xlink:title="set the interrupt mode">
<polygon fill="white" stroke="#666666" points="288.5,-208 149.5,-208 149.5,-188 288.5,-188 288.5,-208"/>
<text xml:space="preserve" text-anchor="middle" x="219" y="-194.5" font-family="Helvetica,sans-Serif" font-size="10.00">pcf8563_set_interrupt_mode</text>
</a>
</g>
</g>
<!-- Node1&#45;&gt;Node10 -->
<g id="edge9_Node000001_Node000010" class="edge">
<title>Node1&#45;&gt;Node10</title>
<g id="a_edge9_Node000001_Node000010"><a xlink:title=" ">
<path fill="none" stroke="#63b8ff" d="M68.7,-275.56C85.03,-260.52 117.32,-232.85 149.5,-217 152.98,-215.28 156.64,-213.7 160.39,-212.25"/>
<polygon fill="#63b8ff" stroke="#63b8ff" points="161.37,-215.61 169.64,-208.99 159.05,-209.01 161.37,-215.61"/>
</a>
</g>
</g>
<!-- Node11 -->
<g id="Node000011" class="node">
<title>Node11</title>
<g id="a_Node000011"><a xlink:href="group__pcf8563__base__driver.html#ga631ff3feb769577d86437e811d7f6f66" target="_top" xlink:title="set minute alarm">
<polygon fill="white" stroke="#666666" points="270.88,-170 167.12,-170 167.12,-138 270.88,-138 270.88,-170"/>
<text xml:space="preserve" text-anchor="start" x="175.12" y="-156.5" font-family="Helvetica,sans-Serif" font-size="10.00">pcf8563_set_minute</text>
<text xml:space="preserve" text-anchor="middle" x="219" y="-144.5" font-family="Helvetica,sans-Serif" font-size="10.00">_alarm</text>
</a>
</g>
</g>
<!-- Node1&#45;&gt;Node11 -->
<g id="edge10_Node000001_Node000011" class="edge">
<title>Node1&#45;&gt;Node11</title>
<g id="a_edge10_Node000001_Node000011"><a xlink:title=" ">
<path fill="none" stroke="#63b8ff" d="M64.01,-275.62C77.24,-254.53 110.08,-206.32 149.5,-179 151.82,-177.39 154.26,-175.87 156.77,-174.44"/>
<polygon fill="#63b8ff" stroke="#63b8ff" points="158.11,-177.69 165.43,-170.03 154.93,-171.45 158.11,-177.69"/>
</a>
</g>
</g>
<!-- Node12 -->
<g id="Node000012" class="node">
<title>Node12</title>
<g id="a_Node000012"><a xlink:href="group__pcf8563__base__driver.html#gac92342a5c25603546236d1d19666e246" target="_top" xlink:title="enable or disable minute alarm">
<polygon fill="white" stroke="#666666" points="270.88,-120 167.12,-120 167.12,-88 270.88,-88 270.88,-120"/>
<text xml:space="preserve" text-anchor="start" x="175.12" y="-106.5" font-family="Helvetica,sans-Serif" font-size="10.00">pcf8563_set_minute</text>
<text xml:space="preserve" text-anchor="middle" x="219" y="-94.5" font-family="Helvetica,sans-Serif" font-size="10.00">_alarm_enable</text>
</a>
</g>
</g>
<!-- Node1&#45;&gt;Node12 -->
<g id="edge11_Node000001_Node000012" class="edge">
<title>Node1&#45;&gt;Node12</title>
<g id="a_edge11_Node000001_Node000012"><a xlink:title=" ">
<path fill="none" stroke="#63b8ff" d="M61.04,-275.55C70.31,-247.69 99.35,-170.9 149.5,-129 151.83,-127.05 154.33,-125.25 156.94,-123.58"/>
<polygon fill="#63b8ff" stroke="#63b8ff" points="158.43,-126.76 165.48,-118.85 155.04,-120.63 158.43,-126.76"/>
</a>
</g>
</g>
<!-- Node13 -->
<g id="Node000013" class="node">
<title>Node13</title>
<g id="a_Node000013"><a xlink:href="group__pcf8563__base__driver.html#gac45418e0673d95059b2b5de0955af71a" target="_top" xlink:title="set week alarm">
<polygon fill="white" stroke="#666666" points="282.5,-70 155.5,-70 155.5,-50 282.5,-50 282.5,-70"/>
<text xml:space="preserve" text-anchor="middle" x="219" y="-56.5" font-family="Helvetica,sans-Serif" font-size="10.00">pcf8563_set_week_alarm</text>
</a>
</g>
</g>
<!-- Node1&#45;&gt;Node13 -->
<g id="edge12_Node000001_Node000013" class="edge">
<title>Node1&#45;&gt;Node13</title>
<g id="a_edge12_Node000001_Node000013"><a xlink:title=" ">
<path fill="none" stroke="#63b8ff" d="M59.21,-275.55C64.49,-241.69 85.82,-133.97 149.5,-79 150.76,-77.92 152.07,-76.89 153.43,-75.93"/>
<polygon fill="#63b8ff" stroke="#63b8ff" points="154.8,-79.18 161.68,-71.13 151.28,-73.13 154.8,-79.18"/>
</a>
</g>
</g>
<!-- Node14 -->
<g id="Node000014" class="node">
<title>Node14</title>
<g id="a_Node000014"><a xlink:href="group__pcf8563__base__driver.html#ga07d5c26255de5955cf6abb84dfb512c1" target="_top" xlink:title="enable or disable week alarm">
<polygon fill="white" stroke="#666666" points="282.5,-32 155.5,-32 155.5,0 282.5,0 282.5,-32"/>
<text xml:space="preserve" text-anchor="start" x="163.5" y="-18.5" font-family="Helvetica,sans-Serif" font-size="10.00">pcf8563_set_week_alarm</text>
<text xml:space="preserve" text-anchor="middle" x="219" y="-6.5" font-family="Helvetica,sans-Serif" font-size="10.00">_enable</text>
</a>
</g>
</g>
<!-- Node1&#45;&gt;Node14 -->
<g id="edge13_Node000001_Node000014" class="edge">
<title>Node1&#45;&gt;Node14</title>
<g id="a_edge13_Node000001_Node000014"><a xlink:title=" ">
<path fill="none" stroke="#63b8ff" d="M58.62,-275.51C62.25,-238.18 79.52,-110.4 149.5,-41 150.23,-40.28 150.98,-39.58 151.75,-38.9"/>
<polygon fill="#63b8ff" stroke="#63b8ff" points="153.47,-41.98 159.46,-33.24 149.33,-36.33 153.47,-41.98"/>
</a>
</g>
</g>
</g>
</svg>
