<?xml version="1.0" encoding="UTF-8" standalone="no"?>
<!DOCTYPE svg PUBLIC "-//W3C//DTD SVG 1.1//EN"
 "http://www.w3.org/Graphics/SVG/1.1/DTD/svg11.dtd">
<!-- Generated by graphviz version 13.1.0 (20250701.0955)
 -->
<!-- Title: pcf8563_alarm_disable Pages: 1 -->
<svg width="299pt" height="228pt"
 viewBox="0.00 0.00 299.00 228.00" xmlns="http://www.w3.org/2000/svg" xmlns:xlink="http://www.w3.org/1999/xlink">
<g id="graph0" class="graph" transform="scale(1 1) rotate(0) translate(4 224)">
<title>pcf8563_alarm_disable</title>
<!-- Node1 -->
<g id="Node000001" class="node">
<title>Node1</title>
<g id="a_Node000001"><a xlink:title="alarm example disable the alarm">
<polygon fill="#999999" stroke="#666666" points="115.75,-126 0,-126 0,-106 115.75,-106 115.75,-126"/>
<text xml:space="preserve" text-anchor="middle" x="57.88" y="-112.5" font-family="Helvetica,sans-Serif" font-size="10.00">pcf8563_alarm_disable</text>
</a>
</g>
</g>
<!-- Node2 -->
<g id="Node000002" class="node">
<title>Node2</title>
<g id="a_Node000002"><a xlink:href="group__pcf8563__base__driver.html#gac1f34cce5e6f6308d3dd28f173cfe235" target="_top" xlink:title="enable or disable alarm interrupt">
<polygon fill="white" stroke="#666666" points="290.75,-220 151.75,-220 151.75,-200 290.75,-200 290.75,-220"/>
<text xml:space="preserve" text-anchor="middle" x="221.25" y="-206.5" font-family="Helvetica,sans-Serif" font-size="10.00">pcf8563_set_alarm_interrupt</text>
</a>
</g>
</g>
<!-- Node1&#45;&gt;Node2 -->
<g id="edge1_Node000001_Node000002" class="edge">
<title>Node1&#45;&gt;Node2</title>
<g id="a_edge1_Node000001_Node000002"><a xlink:title=" ">
<path fill="none" stroke="#63b8ff" d="M68.73,-126.32C84.69,-142.45 117.84,-173.56 151.75,-191 155.04,-192.69 158.5,-194.25 162.05,-195.68"/>
<polygon fill="#63b8ff" stroke="#63b8ff" points="160.84,-198.96 171.43,-199.08 163.22,-192.38 160.84,-198.96"/>
</a>
</g>
</g>
<!-- Node3 -->
<g id="Node000003" class="node">
<title>Node3</title>
<g id="a_Node000003"><a xlink:href="group__pcf8563__base__driver.html#gac57418efeeacbeecf55bb8d398d5c74b" target="_top" xlink:title="enable or disable day alarm">
<polygon fill="white" stroke="#666666" points="281,-182 161.5,-182 161.5,-150 281,-150 281,-182"/>
<text xml:space="preserve" text-anchor="start" x="169.5" y="-168.5" font-family="Helvetica,sans-Serif" font-size="10.00">pcf8563_set_day_alarm</text>
<text xml:space="preserve" text-anchor="middle" x="221.25" y="-156.5" font-family="Helvetica,sans-Serif" font-size="10.00">_enable</text>
</a>
</g>
</g>
<!-- Node1&#45;&gt;Node3 -->
<g id="edge2_Node000001_Node000003" class="edge">
<title>Node1&#45;&gt;Node3</title>
<g id="a_edge2_Node000001_Node000003"><a xlink:title=" ">
<path fill="none" stroke="#63b8ff" d="M92.7,-126.48C111.13,-132.19 134.54,-139.44 156.26,-146.17"/>
<polygon fill="#63b8ff" stroke="#63b8ff" points="155.06,-149.46 165.64,-149.08 157.13,-142.78 155.06,-149.46"/>
</a>
</g>
</g>
<!-- Node4 -->
<g id="Node000004" class="node">
<title>Node4</title>
<g id="a_Node000004"><a xlink:href="group__pcf8563__base__driver.html#ga08ab309aa5842c40b572062f6fd56300" target="_top" xlink:title="enable or disable hour alarm">
<polygon fill="white" stroke="#666666" points="282.5,-132 160,-132 160,-100 282.5,-100 282.5,-132"/>
<text xml:space="preserve" text-anchor="start" x="168" y="-118.5" font-family="Helvetica,sans-Serif" font-size="10.00">pcf8563_set_hour_alarm</text>
<text xml:space="preserve" text-anchor="middle" x="221.25" y="-106.5" font-family="Helvetica,sans-Serif" font-size="10.00">_enable</text>
</a>
</g>
</g>
<!-- Node1&#45;&gt;Node4 -->
<g id="edge3_Node000001_Node000004" class="edge">
<title>Node1&#45;&gt;Node4</title>
<g id="a_edge3_Node000001_Node000004"><a xlink:title=" ">
<path fill="none" stroke="#63b8ff" d="M116.22,-116C126.54,-116 137.4,-116 148.07,-116"/>
<polygon fill="#63b8ff" stroke="#63b8ff" points="148.02,-119.5 158.02,-116 148.02,-112.5 148.02,-119.5"/>
</a>
</g>
</g>
<!-- Node5 -->
<g id="Node000005" class="node">
<title>Node5</title>
<g id="a_Node000005"><a xlink:href="group__pcf8563__base__driver.html#gac92342a5c25603546236d1d19666e246" target="_top" xlink:title="enable or disable minute alarm">
<polygon fill="white" stroke="#666666" points="273.12,-82 169.38,-82 169.38,-50 273.12,-50 273.12,-82"/>
<text xml:space="preserve" text-anchor="start" x="177.38" y="-68.5" font-family="Helvetica,sans-Serif" font-size="10.00">pcf8563_set_minute</text>
<text xml:space="preserve" text-anchor="middle" x="221.25" y="-56.5" font-family="Helvetica,sans-Serif" font-size="10.00">_alarm_enable</text>
</a>
</g>
</g>
<!-- Node1&#45;&gt;Node5 -->
<g id="edge4_Node000001_Node000005" class="edge">
<title>Node1&#45;&gt;Node5</title>
<g id="a_edge4_Node000001_Node000005"><a xlink:title=" ">
<path fill="none" stroke="#63b8ff" d="M92.7,-105.52C111.69,-99.64 135.97,-92.11 158.24,-85.21"/>
<polygon fill="#63b8ff" stroke="#63b8ff" points="159.01,-88.64 167.53,-82.34 156.94,-81.95 159.01,-88.64"/>
</a>
</g>
</g>
<!-- Node6 -->
<g id="Node000006" class="node">
<title>Node6</title>
<g id="a_Node000006"><a xlink:href="group__pcf8563__base__driver.html#ga07d5c26255de5955cf6abb84dfb512c1" target="_top" xlink:title="enable or disable week alarm">
<polygon fill="white" stroke="#666666" points="284.75,-32 157.75,-32 157.75,0 284.75,0 284.75,-32"/>
<text xml:space="preserve" text-anchor="start" x="165.75" y="-18.5" font-family="Helvetica,sans-Serif" font-size="10.00">pcf8563_set_week_alarm</text>
<text xml:space="preserve" text-anchor="middle" x="221.25" y="-6.5" font-family="Helvetica,sans-Serif" font-size="10.00">_enable</text>
</a>
</g>
</g>
<!-- Node1&#45;&gt;Node6 -->
<g id="edge5_Node000001_Node000006" class="edge">
<title>Node1&#45;&gt;Node6</title>
<g id="a_edge5_Node000001_Node000006"><a xlink:title=" ">
<path fill="none" stroke="#63b8ff" d="M69.17,-105.74C85.46,-89.97 118.74,-59.67 151.75,-41 154.07,-39.69 156.48,-38.42 158.94,-37.2"/>
<polygon fill="#63b8ff" stroke="#63b8ff" points="160.27,-40.44 167.9,-33.09 157.35,-34.08 160.27,-40.44"/>
</a>
</g>
</g>
</g>
</svg>
