<?xml version="1.0" encoding="UTF-8" standalone="no"?>
<!DOCTYPE svg PUBLIC "-//W3C//DTD SVG 1.1//EN"
 "http://www.w3.org/Graphics/SVG/1.1/DTD/svg11.dtd">
<!-- Generated by graphviz version 13.1.0 (20250701.0955)
 -->
<!-- Title: pcf8563_alarm_init Pages: 1 -->
<svg width="282pt" height="820pt"
 viewBox="0.00 0.00 282.00 820.00" xmlns="http://www.w3.org/2000/svg" xmlns:xlink="http://www.w3.org/1999/xlink">
<g id="graph0" class="graph" transform="scale(1 1) rotate(0) translate(4 816)">
<title>pcf8563_alarm_init</title>
<!-- Node1 -->
<g id="Node000001" class="node">
<title>Node1</title>
<g id="a_Node000001"><a xlink:title="alarm example init">
<polygon fill="#999999" stroke="#666666" points="97.75,-428 0,-428 0,-408 97.75,-408 97.75,-428"/>
<text xml:space="preserve" text-anchor="middle" x="48.88" y="-414.5" font-family="Helvetica,sans-Serif" font-size="10.00">pcf8563_alarm_init</text>
</a>
</g>
</g>
<!-- Node2 -->
<g id="Node000002" class="node">
<title>Node2</title>
<g id="a_Node000002"><a xlink:href="group__pcf8563__base__driver.html#ga17f476e7d78bcec9d3489e8971316ac3" target="_top" xlink:title="close the chip">
<polygon fill="white" stroke="#666666" points="243.5,-812 164.5,-812 164.5,-792 243.5,-792 243.5,-812"/>
<text xml:space="preserve" text-anchor="middle" x="204" y="-798.5" font-family="Helvetica,sans-Serif" font-size="10.00">pcf8563_deinit</text>
</a>
</g>
</g>
<!-- Node1&#45;&gt;Node2 -->
<g id="edge1_Node000001_Node000002" class="edge">
<title>Node1&#45;&gt;Node2</title>
<g id="a_edge1_Node000001_Node000002"><a xlink:title=" ">
<path fill="none" stroke="#63b8ff" d="M50.82,-428.22C56,-481.77 82.45,-729.5 133.75,-783 139.14,-788.62 146.03,-792.63 153.36,-795.48"/>
<polygon fill="#63b8ff" stroke="#63b8ff" points="152.25,-798.8 162.84,-798.43 154.33,-792.12 152.25,-798.8"/>
</a>
</g>
</g>
<!-- Node3 -->
<g id="Node000003" class="node">
<title>Node3</title>
<g id="a_Node000003"><a xlink:href="group__pcf8563__base__driver.html#ga83b0f5dc508a7e1f5a3c4a7cc30b58cb" target="_top" xlink:title="initialize the chip">
<polygon fill="white" stroke="#666666" points="238.25,-774 169.75,-774 169.75,-754 238.25,-754 238.25,-774"/>
<text xml:space="preserve" text-anchor="middle" x="204" y="-760.5" font-family="Helvetica,sans-Serif" font-size="10.00">pcf8563_init</text>
</a>
</g>
</g>
<!-- Node1&#45;&gt;Node3 -->
<g id="edge2_Node000001_Node000003" class="edge">
<title>Node1&#45;&gt;Node3</title>
<g id="a_edge2_Node000001_Node000003"><a xlink:title=" ">
<path fill="none" stroke="#63b8ff" d="M51.15,-428.47C57.5,-479.08 87.31,-697.78 133.75,-745 140.4,-751.76 149.21,-756.18 158.31,-759.06"/>
<polygon fill="#63b8ff" stroke="#63b8ff" points="157.42,-762.44 167.97,-761.48 159.12,-755.65 157.42,-762.44"/>
</a>
</g>
</g>
<!-- Node4 -->
<g id="Node000004" class="node">
<title>Node4</title>
<g id="a_Node000004"><a xlink:href="group__pcf8563__interface__driver.html#ga8dcf97b554498417a887888ad724c580" target="_top" xlink:title="interface print format data">
<polygon fill="white" stroke="#666666" points="266.38,-736 141.62,-736 141.62,-704 266.38,-704 266.38,-736"/>
<text xml:space="preserve" text-anchor="start" x="149.62" y="-722.5" font-family="Helvetica,sans-Serif" font-size="10.00">pcf8563_interface_debug</text>
<text xml:space="preserve" text-anchor="middle" x="204" y="-710.5" font-family="Helvetica,sans-Serif" font-size="10.00">_print</text>
</a>
</g>
</g>
<!-- Node1&#45;&gt;Node4 -->
<g id="edge3_Node000001_Node000004" class="edge">
<title>Node1&#45;&gt;Node4</title>
<g id="a_edge3_Node000001_Node000004"><a xlink:title=" ">
<path fill="none" stroke="#63b8ff" d="M49.87,-428.41C50.44,-468.54 57.83,-614.99 133.75,-695 134.23,-695.51 134.72,-696 135.23,-696.49"/>
<polygon fill="#63b8ff" stroke="#63b8ff" points="132.95,-699.16 142.98,-702.59 137.28,-693.66 132.95,-699.16"/>
</a>
</g>
</g>
<!-- Node5 -->
<g id="Node000005" class="node">
<title>Node5</title>
<g id="a_Node000005"><a xlink:href="group__pcf8563__interface__driver.html#ga4692d53054f46d6a1f86223f2ba821fe" target="_top" xlink:title="interface delay ms">
<polygon fill="white" stroke="#666666" points="274.25,-686 133.75,-686 133.75,-666 274.25,-666 274.25,-686"/>
<text xml:space="preserve" text-anchor="middle" x="204" y="-672.5" font-family="Helvetica,sans-Serif" font-size="10.00">pcf8563_interface_delay_ms</text>
</a>
</g>
</g>
<!-- Node1&#45;&gt;Node5 -->
<g id="edge4_Node000001_Node000005" class="edge">
<title>Node1&#45;&gt;Node5</title>
<g id="a_edge4_Node000001_Node000005"><a xlink:title=" ">
<path fill="none" stroke="#63b8ff" d="M50.26,-428.42C52.22,-465.44 63.96,-591.92 133.75,-657 134.66,-657.85 135.61,-658.66 136.58,-659.44"/>
<polygon fill="#63b8ff" stroke="#63b8ff" points="134.5,-662.26 144.81,-664.7 138.27,-656.36 134.5,-662.26"/>
</a>
</g>
</g>
<!-- Node6 -->
<g id="Node000006" class="node">
<title>Node6</title>
<g id="a_Node000006"><a xlink:href="group__pcf8563__interface__driver.html#ga3dab4fc9bd87d3394d115607635003e2" target="_top" xlink:title="interface iic bus deinit">
<polygon fill="white" stroke="#666666" points="258.12,-648 149.88,-648 149.88,-616 258.12,-616 258.12,-648"/>
<text xml:space="preserve" text-anchor="start" x="157.88" y="-634.5" font-family="Helvetica,sans-Serif" font-size="10.00">pcf8563_interface_iic</text>
<text xml:space="preserve" text-anchor="middle" x="204" y="-622.5" font-family="Helvetica,sans-Serif" font-size="10.00">_deinit</text>
</a>
</g>
</g>
<!-- Node1&#45;&gt;Node6 -->
<g id="edge5_Node000001_Node000006" class="edge">
<title>Node1&#45;&gt;Node6</title>
<g id="a_edge5_Node000001_Node000006"><a xlink:title=" ">
<path fill="none" stroke="#63b8ff" d="M51.52,-428.23C57.08,-459.56 78.05,-555.14 133.75,-607 135.61,-608.73 137.6,-610.35 139.69,-611.85"/>
<polygon fill="#63b8ff" stroke="#63b8ff" points="137.73,-614.76 148.09,-616.98 141.38,-608.78 137.73,-614.76"/>
</a>
</g>
</g>
<!-- Node7 -->
<g id="Node000007" class="node">
<title>Node7</title>
<g id="a_Node000007"><a xlink:href="group__pcf8563__interface__driver.html#ga0123117ea131186768f481ee10ebab62" target="_top" xlink:title="interface iic bus init">
<polygon fill="white" stroke="#666666" points="267.12,-598 140.88,-598 140.88,-578 267.12,-578 267.12,-598"/>
<text xml:space="preserve" text-anchor="middle" x="204" y="-584.5" font-family="Helvetica,sans-Serif" font-size="10.00">pcf8563_interface_iic_init</text>
</a>
</g>
</g>
<!-- Node1&#45;&gt;Node7 -->
<g id="edge6_Node000001_Node000007" class="edge">
<title>Node1&#45;&gt;Node7</title>
<g id="a_edge6_Node000001_Node000007"><a xlink:title=" ">
<path fill="none" stroke="#63b8ff" d="M52.55,-428.26C60.22,-455.59 84.93,-530.66 133.75,-569 135.27,-570.19 136.85,-571.31 138.49,-572.35"/>
<polygon fill="#63b8ff" stroke="#63b8ff" points="136.6,-575.31 147.07,-576.91 139.88,-569.13 136.6,-575.31"/>
</a>
</g>
</g>
<!-- Node8 -->
<g id="Node000008" class="node">
<title>Node8</title>
<g id="a_Node000008"><a xlink:href="group__pcf8563__interface__driver.html#ga226bc8c2598a4c19033ce5e6f66ce27d" target="_top" xlink:title="interface iic bus read">
<polygon fill="white" stroke="#666666" points="270.12,-560 137.88,-560 137.88,-540 270.12,-540 270.12,-560"/>
<text xml:space="preserve" text-anchor="middle" x="204" y="-546.5" font-family="Helvetica,sans-Serif" font-size="10.00">pcf8563_interface_iic_read</text>
</a>
</g>
</g>
<!-- Node1&#45;&gt;Node8 -->
<g id="edge7_Node000001_Node000008" class="edge">
<title>Node1&#45;&gt;Node8</title>
<g id="a_edge7_Node000001_Node000008"><a xlink:title=" ">
<path fill="none" stroke="#63b8ff" d="M54.53,-428.23C65.2,-450.49 93.62,-503.55 133.75,-531 135.72,-532.35 137.78,-533.6 139.91,-534.76"/>
<polygon fill="#63b8ff" stroke="#63b8ff" points="138.36,-537.9 148.91,-538.95 141.32,-531.56 138.36,-537.9"/>
</a>
</g>
</g>
<!-- Node9 -->
<g id="Node000009" class="node">
<title>Node9</title>
<g id="a_Node000009"><a xlink:href="group__pcf8563__interface__driver.html#gae5e7072c55754563646762f86d2dfaf1" target="_top" xlink:title="interface iic bus write">
<polygon fill="white" stroke="#666666" points="258.12,-522 149.88,-522 149.88,-490 258.12,-490 258.12,-522"/>
<text xml:space="preserve" text-anchor="start" x="157.88" y="-508.5" font-family="Helvetica,sans-Serif" font-size="10.00">pcf8563_interface_iic</text>
<text xml:space="preserve" text-anchor="middle" x="204" y="-496.5" font-family="Helvetica,sans-Serif" font-size="10.00">_write</text>
</a>
</g>
</g>
<!-- Node1&#45;&gt;Node9 -->
<g id="edge8_Node000001_Node000009" class="edge">
<title>Node1&#45;&gt;Node9</title>
<g id="a_edge8_Node000001_Node000009"><a xlink:title=" ">
<path fill="none" stroke="#63b8ff" d="M61.33,-428.38C76.81,-441.97 105.71,-465.85 133.75,-481 136.26,-482.36 138.86,-483.66 141.51,-484.93"/>
<polygon fill="#63b8ff" stroke="#63b8ff" points="139.99,-488.08 150.55,-488.93 142.82,-481.68 139.99,-488.08"/>
</a>
</g>
</g>
<!-- Node10 -->
<g id="Node000010" class="node">
<title>Node10</title>
<g id="a_Node000010"><a xlink:href="group__pcf8563__base__driver.html#gac1f34cce5e6f6308d3dd28f173cfe235" target="_top" xlink:title="enable or disable alarm interrupt">
<polygon fill="white" stroke="#666666" points="273.5,-472 134.5,-472 134.5,-452 273.5,-452 273.5,-472"/>
<text xml:space="preserve" text-anchor="middle" x="204" y="-458.5" font-family="Helvetica,sans-Serif" font-size="10.00">pcf8563_set_alarm_interrupt</text>
</a>
</g>
</g>
<!-- Node1&#45;&gt;Node10 -->
<g id="edge9_Node000001_Node000010" class="edge">
<title>Node1&#45;&gt;Node10</title>
<g id="a_edge9_Node000001_Node000010"><a xlink:title=" ">
<path fill="none" stroke="#63b8ff" d="M84.1,-428.39C99.29,-432.95 117.39,-438.32 133.75,-443 140.12,-444.82 146.84,-446.71 153.47,-448.55"/>
<polygon fill="#63b8ff" stroke="#63b8ff" points="152.47,-451.91 163.04,-451.19 154.33,-445.16 152.47,-451.91"/>
</a>
</g>
</g>
<!-- Node11 -->
<g id="Node000011" class="node">
<title>Node11</title>
<g id="a_Node000011"><a xlink:href="group__pcf8563__base__driver.html#ga7d94c9c54277d2686eaecae20f849f13" target="_top" xlink:title="enable or disable clock out enable">
<polygon fill="white" stroke="#666666" points="262.25,-434 145.75,-434 145.75,-402 262.25,-402 262.25,-434"/>
<text xml:space="preserve" text-anchor="start" x="153.75" y="-420.5" font-family="Helvetica,sans-Serif" font-size="10.00">pcf8563_set_clock_out</text>
<text xml:space="preserve" text-anchor="middle" x="204" y="-408.5" font-family="Helvetica,sans-Serif" font-size="10.00">_enable</text>
</a>
</g>
</g>
<!-- Node1&#45;&gt;Node11 -->
<g id="edge10_Node000001_Node000011" class="edge">
<title>Node1&#45;&gt;Node11</title>
<g id="a_edge10_Node000001_Node000011"><a xlink:title=" ">
<path fill="none" stroke="#63b8ff" d="M97.9,-418C109.45,-418 122.02,-418 134.3,-418"/>
<polygon fill="#63b8ff" stroke="#63b8ff" points="133.96,-421.5 143.96,-418 133.96,-414.5 133.96,-421.5"/>
</a>
</g>
</g>
<!-- Node12 -->
<g id="Node000012" class="node">
<title>Node12</title>
<g id="a_Node000012"><a xlink:href="group__pcf8563__base__driver.html#gac57418efeeacbeecf55bb8d398d5c74b" target="_top" xlink:title="enable or disable day alarm">
<polygon fill="white" stroke="#666666" points="263.75,-384 144.25,-384 144.25,-352 263.75,-352 263.75,-384"/>
<text xml:space="preserve" text-anchor="start" x="152.25" y="-370.5" font-family="Helvetica,sans-Serif" font-size="10.00">pcf8563_set_day_alarm</text>
<text xml:space="preserve" text-anchor="middle" x="204" y="-358.5" font-family="Helvetica,sans-Serif" font-size="10.00">_enable</text>
</a>
</g>
</g>
<!-- Node1&#45;&gt;Node12 -->
<g id="edge11_Node000001_Node000012" class="edge">
<title>Node1&#45;&gt;Node12</title>
<g id="a_edge11_Node000001_Node000012"><a xlink:title=" ">
<path fill="none" stroke="#63b8ff" d="M81.98,-407.52C99.3,-401.86 121.26,-394.69 141.71,-388.01"/>
<polygon fill="#63b8ff" stroke="#63b8ff" points="142.7,-391.37 151.12,-384.94 140.53,-384.72 142.7,-391.37"/>
</a>
</g>
</g>
<!-- Node13 -->
<g id="Node000013" class="node">
<title>Node13</title>
<g id="a_Node000013"><a xlink:href="group__pcf8563__base__driver.html#ga08ab309aa5842c40b572062f6fd56300" target="_top" xlink:title="enable or disable hour alarm">
<polygon fill="white" stroke="#666666" points="265.25,-334 142.75,-334 142.75,-302 265.25,-302 265.25,-334"/>
<text xml:space="preserve" text-anchor="start" x="150.75" y="-320.5" font-family="Helvetica,sans-Serif" font-size="10.00">pcf8563_set_hour_alarm</text>
<text xml:space="preserve" text-anchor="middle" x="204" y="-308.5" font-family="Helvetica,sans-Serif" font-size="10.00">_enable</text>
</a>
</g>
</g>
<!-- Node1&#45;&gt;Node13 -->
<g id="edge12_Node000001_Node000013" class="edge">
<title>Node1&#45;&gt;Node13</title>
<g id="a_edge12_Node000001_Node000013"><a xlink:title=" ">
<path fill="none" stroke="#63b8ff" d="M58.96,-407.65C73.38,-391.77 103.05,-361.32 133.75,-343 135.89,-341.72 138.11,-340.5 140.37,-339.32"/>
<polygon fill="#63b8ff" stroke="#63b8ff" points="141.68,-342.57 149.21,-335.12 138.67,-336.25 141.68,-342.57"/>
</a>
</g>
</g>
<!-- Node14 -->
<g id="Node000014" class="node">
<title>Node14</title>
<g id="a_Node000014"><a xlink:href="group__pcf8563__base__driver.html#gac92342a5c25603546236d1d19666e246" target="_top" xlink:title="enable or disable minute alarm">
<polygon fill="white" stroke="#666666" points="255.88,-284 152.12,-284 152.12,-252 255.88,-252 255.88,-284"/>
<text xml:space="preserve" text-anchor="start" x="160.12" y="-270.5" font-family="Helvetica,sans-Serif" font-size="10.00">pcf8563_set_minute</text>
<text xml:space="preserve" text-anchor="middle" x="204" y="-258.5" font-family="Helvetica,sans-Serif" font-size="10.00">_alarm_enable</text>
</a>
</g>
</g>
<!-- Node1&#45;&gt;Node14 -->
<g id="edge13_Node000001_Node000014" class="edge">
<title>Node1&#45;&gt;Node14</title>
<g id="a_edge13_Node000001_Node000014"><a xlink:title=" ">
<path fill="none" stroke="#63b8ff" d="M54.09,-407.65C64.26,-383.95 92.35,-325.34 133.75,-293 136.3,-291.01 139.02,-289.17 141.86,-287.46"/>
<polygon fill="#63b8ff" stroke="#63b8ff" points="143.3,-290.66 150.52,-282.9 140.04,-284.47 143.3,-290.66"/>
</a>
</g>
</g>
<!-- Node15 -->
<g id="Node000015" class="node">
<title>Node15</title>
<g id="a_Node000015"><a xlink:href="group__pcf8563__base__driver.html#gafeac16ba2e54988d6685088e259858be" target="_top" xlink:title="enable or disable power on reset">
<polygon fill="white" stroke="#666666" points="262.25,-234 145.75,-234 145.75,-202 262.25,-202 262.25,-234"/>
<text xml:space="preserve" text-anchor="start" x="153.75" y="-220.5" font-family="Helvetica,sans-Serif" font-size="10.00">pcf8563_set_power_on</text>
<text xml:space="preserve" text-anchor="middle" x="204" y="-208.5" font-family="Helvetica,sans-Serif" font-size="10.00">_reset</text>
</a>
</g>
</g>
<!-- Node1&#45;&gt;Node15 -->
<g id="edge14_Node000001_Node000015" class="edge">
<title>Node1&#45;&gt;Node15</title>
<g id="a_edge14_Node000001_Node000015"><a xlink:title=" ">
<path fill="none" stroke="#63b8ff" d="M51.94,-407.68C58.45,-377.81 81.27,-290.45 133.75,-243 134.65,-242.19 135.58,-241.4 136.53,-240.63"/>
<polygon fill="#63b8ff" stroke="#63b8ff" points="138.14,-243.77 144.46,-235.27 134.21,-237.98 138.14,-243.77"/>
</a>
</g>
</g>
<!-- Node16 -->
<g id="Node000016" class="node">
<title>Node16</title>
<g id="a_Node000016"><a xlink:href="group__pcf8563__base__driver.html#gacb2ccc116a7a2991315a43879448cfc1" target="_top" xlink:title="enable or disable rtc stop">
<polygon fill="white" stroke="#666666" points="258.88,-184 149.12,-184 149.12,-164 258.88,-164 258.88,-184"/>
<text xml:space="preserve" text-anchor="middle" x="204" y="-170.5" font-family="Helvetica,sans-Serif" font-size="10.00">pcf8563_set_rtc_stop</text>
</a>
</g>
</g>
<!-- Node1&#45;&gt;Node16 -->
<g id="edge15_Node000001_Node000016" class="edge">
<title>Node1&#45;&gt;Node16</title>
<g id="a_edge15_Node000001_Node000016"><a xlink:title=" ">
<path fill="none" stroke="#63b8ff" d="M50.51,-407.69C53.27,-372.17 67.31,-253.78 133.75,-193 135.41,-191.49 137.17,-190.09 139.02,-188.8"/>
<polygon fill="#63b8ff" stroke="#63b8ff" points="140.57,-191.95 147.57,-183.99 137.14,-185.85 140.57,-191.95"/>
</a>
</g>
</g>
<!-- Node17 -->
<g id="Node000017" class="node">
<title>Node17</title>
<g id="a_Node000017"><a xlink:href="group__pcf8563__base__driver.html#ga5bc2ed4c53eea1d6855721e5c4f09576" target="_top" xlink:title="enable or disable test mode">
<polygon fill="white" stroke="#666666" points="264.12,-146 143.88,-146 143.88,-126 264.12,-126 264.12,-146"/>
<text xml:space="preserve" text-anchor="middle" x="204" y="-132.5" font-family="Helvetica,sans-Serif" font-size="10.00">pcf8563_set_test_mode</text>
</a>
</g>
</g>
<!-- Node1&#45;&gt;Node17 -->
<g id="edge16_Node000001_Node000017" class="edge">
<title>Node1&#45;&gt;Node17</title>
<g id="a_edge16_Node000001_Node000017"><a xlink:title=" ">
<path fill="none" stroke="#63b8ff" d="M49.88,-407.66C50.48,-368.48 58.03,-227.68 133.75,-155 134.65,-154.14 135.58,-153.31 136.55,-152.52"/>
<polygon fill="#63b8ff" stroke="#63b8ff" points="138.24,-155.6 144.71,-147.2 134.42,-149.73 138.24,-155.6"/>
</a>
</g>
</g>
<!-- Node18 -->
<g id="Node000018" class="node">
<title>Node18</title>
<g id="a_Node000018"><a xlink:href="group__pcf8563__base__driver.html#ga0ec9787e27f3d4679522d3016a8ba9c2" target="_top" xlink:title="enable or disable timer enable">
<polygon fill="white" stroke="#666666" points="269,-108 139,-108 139,-88 269,-88 269,-108"/>
<text xml:space="preserve" text-anchor="middle" x="204" y="-94.5" font-family="Helvetica,sans-Serif" font-size="10.00">pcf8563_set_timer_enable</text>
</a>
</g>
</g>
<!-- Node1&#45;&gt;Node18 -->
<g id="edge17_Node000001_Node000018" class="edge">
<title>Node1&#45;&gt;Node18</title>
<g id="a_edge17_Node000001_Node000018"><a xlink:title=" ">
<path fill="none" stroke="#63b8ff" d="M49.4,-407.69C48.01,-365.19 48.62,-201.8 133.75,-117 134.5,-116.25 135.28,-115.53 136.09,-114.83"/>
<polygon fill="#63b8ff" stroke="#63b8ff" points="137.96,-117.79 144.26,-109.27 134.02,-112.01 137.96,-117.79"/>
</a>
</g>
</g>
<!-- Node19 -->
<g id="Node000019" class="node">
<title>Node19</title>
<g id="a_Node000019"><a xlink:href="group__pcf8563__base__driver.html#ga5b1b0012696aa2cb21dffbeb2b76b39e" target="_top" xlink:title="enable or disable timer interrupt">
<polygon fill="white" stroke="#666666" points="272.38,-70 135.62,-70 135.62,-50 272.38,-50 272.38,-70"/>
<text xml:space="preserve" text-anchor="middle" x="204" y="-56.5" font-family="Helvetica,sans-Serif" font-size="10.00">pcf8563_set_timer_interrupt</text>
</a>
</g>
</g>
<!-- Node1&#45;&gt;Node19 -->
<g id="edge18_Node000001_Node000019" class="edge">
<title>Node1&#45;&gt;Node19</title>
<g id="a_edge18_Node000001_Node000019"><a xlink:title=" ">
<path fill="none" stroke="#63b8ff" d="M51.01,-407.83C56.92,-356.71 85.71,-128.27 133.75,-79 134.47,-78.26 135.22,-77.54 136,-76.86"/>
<polygon fill="#63b8ff" stroke="#63b8ff" points="137.66,-79.97 143.83,-71.36 133.63,-74.24 137.66,-79.97"/>
</a>
</g>
</g>
<!-- Node20 -->
<g id="Node000020" class="node">
<title>Node20</title>
<g id="a_Node000020"><a xlink:href="group__pcf8563__base__driver.html#ga07d5c26255de5955cf6abb84dfb512c1" target="_top" xlink:title="enable or disable week alarm">
<polygon fill="white" stroke="#666666" points="267.5,-32 140.5,-32 140.5,0 267.5,0 267.5,-32"/>
<text xml:space="preserve" text-anchor="start" x="148.5" y="-18.5" font-family="Helvetica,sans-Serif" font-size="10.00">pcf8563_set_week_alarm</text>
<text xml:space="preserve" text-anchor="middle" x="204" y="-6.5" font-family="Helvetica,sans-Serif" font-size="10.00">_enable</text>
</a>
</g>
</g>
<!-- Node1&#45;&gt;Node20 -->
<g id="edge19_Node000001_Node000020" class="edge">
<title>Node1&#45;&gt;Node20</title>
<g id="a_edge19_Node000001_Node000020"><a xlink:title=" ">
<path fill="none" stroke="#63b8ff" d="M50.85,-407.52C56.17,-352.59 83.25,-98.38 133.75,-41 134.11,-40.59 134.47,-40.19 134.85,-39.8"/>
<polygon fill="#63b8ff" stroke="#63b8ff" points="137.03,-42.54 142.41,-33.41 132.51,-37.19 137.03,-42.54"/>
</a>
</g>
</g>
</g>
</svg>
